<?xml version="1.0" encoding="UTF-8"?>
<svg id="Layer_2" data-name="Layer 2" xmlns="http://www.w3.org/2000/svg" xmlns:xlink="http://www.w3.org/1999/xlink" viewBox="0 0 147.47 108.34">
  <defs>
    <style>
      .cls-1 {
        fill: #fff;
      }

      .cls-2 {
        fill: #d2e322;
      }

      .cls-3 {
        clip-path: url(#clippath-1);
      }

      .cls-4 {
        clip-path: url(#clippath);
      }

      .cls-5 {
        fill: #ff5e00;
      }
    </style>
    <clipPath id="clippath">
      <path class="cls-2" d="M107.28,62.68c-10.74,13.74-26.02,22.65-38.13,35.36-2.46,2.59-8.63,8.07-2.13,10.01,1.93,.57,3.99,.18,5.96-.25,22.23-4.77,43.75-12.33,65.19-19.88,2.18-.77,4.4-1.55,6.28-2.9,4.59-3.28,2.83-6.38,1.93-11.01-2.9-14.91-5.58-30.08-10.68-44.42-2.65-7.46-6.04-14.53-11.28-20.61-11.14-12.91-31.54-11.76-40.86,2.51-1.87,2.86-4.26,4.63-7.3,5.83-5.09,2.02-10.43,2.96-15.8,3.73-1.52,.22-2.67,.73-3.18,2.19-.85,2.42,2,6.07,3.18,8.15,2.4,4.23,6.79,6.85,11.56,7.41,6.24,.72,12.39,.98,18.6,2.16,4.16,.79,8.01,2.75,10.53,6.23,1.28,1.76,2.11,3.76,2.74,5.83,.26,.87,.36,2.18,1.48,2.23,3.84,.17,6.13-6.06,7.26-8.86,2.19-5.42,2.37-11.07,3.34-16.77,.26-1.51,1.51-3.87,1.28-5.35,1.85,11.75,.75,21.37-5.32,31.63-1.42,2.4-2.98,4.65-4.65,6.79Z"/>
    </clipPath>
    <clipPath id="clippath-1">
      <path class="cls-2" d="M22.27,40.54c-.53,6.89,.3,13.33,3.68,19.18,2.31,3.99,2.4,8.2,2.11,12.53-.09,1.3-.42,2.59-.63,3.88-.44,2.7-.45,2.61-3.27,2.88-3.4,.33-13.89,1.22-15.74,4.52-2.05,3.66,3.07,10.72,5.44,13.02,3.72,3.63,8.58,5.85,13.51,7.51,8.08,2.72,16.6,4.12,25.13,4.1,1.46,0,3.02-.08,4.22-.91,1.9-1.33,1.03-4.08,1.07-6.04,.06-2.75,.26-5.47,.12-8.22-.26-5.31-1.3-10.58-3.45-15.46-.47-1.08-.8-1.76,.72-2.26,1.25-.41,2.11-1.46,2.71-2.71,2.84-5.95,2.95-11.92,.11-17.88-.5-1.05-.57-1.92-.12-2.99,1.31-3.08,2.05-6.28,1.89-9.66-.06-1.23-.33-1.62-1.5-.79-3.52,2.52-7.02,5.06-9.94,8.28-.74,.82-1.48,1.03-2.47,.84-3.51-.7-6.99-.43-10.39,.56-1.08,.32-1.56,.03-2.16-.76-2.6-3.43-5.81-6.21-9.34-8.63-.49-.34-1.03-.61-1.71-1Z"/>
    </clipPath>
  </defs>
  <g id="Layer_1-2" data-name="Layer 1">
    <g>
      <g>
        <path class="cls-5" d="M6.06,7.14c1.06,2.79,4.75,3.25,7.73,3.25,8.09,0,16.18,.02,24.27,.02,2.06,0,4.2-.01,6.07-.87,3.83-1.76,3.42-5.09-.72-4.79-4.19,.31-8.48,1.77-12.7,2.27-4.15,.49-8.33,.74-12.51,.76-1.32,0-11.76,.39-12.16-.65Z"/>
        <path class="cls-5" d="M0,32.09c1.06-2.79,4.75-3.25,7.73-3.25,8.09,0,16.18-.02,24.27-.02,2.06,0,4.2,.01,6.07,.87,3.83,1.76,3.42,5.09-.72,4.79-4.19-.31-8.48-1.77-12.7-2.27-4.15-.49-8.33-.74-12.51-.76-1.32,0-11.76-.39-12.16,.65Z"/>
        <path class="cls-5" d="M20.25,18.62c-.78,0-1.77,.16-1.95,.91-.12,.5,.24,1.01,.69,1.25s.99,.26,1.5,.27c5.28,.15,10.55,.97,15.82,.32,1.2-.15,2.7-.68,2.72-1.89,.01-.74-.63-1.37-1.34-1.59-.71-.22-1.48-.13-2.22-.04-5.05,.64-10.12,.77-15.22,.77Z"/>
      </g>
      <g>
        <path class="cls-2" d="M107.28,62.68c-10.74,13.74-26.02,22.65-38.13,35.36-2.46,2.59-8.63,8.07-2.13,10.01,1.93,.57,3.99,.18,5.96-.25,22.23-4.77,43.75-12.33,65.19-19.88,2.18-.77,4.4-1.55,6.28-2.9,4.59-3.28,2.83-6.38,1.93-11.01-2.9-14.91-5.58-30.08-10.68-44.42-2.65-7.46-6.04-14.53-11.28-20.61-11.14-12.91-31.54-11.76-40.86,2.51-1.87,2.86-4.26,4.63-7.3,5.83-5.09,2.02-10.43,2.96-15.8,3.73-1.52,.22-2.67,.73-3.18,2.19-.85,2.42,2,6.07,3.18,8.15,2.4,4.23,6.79,6.85,11.56,7.41,6.24,.72,12.39,.98,18.6,2.16,4.16,.79,8.01,2.75,10.53,6.23,1.28,1.76,2.11,3.76,2.74,5.83,.26,.87,.36,2.18,1.48,2.23,3.84,.17,6.13-6.06,7.26-8.86,2.19-5.42,2.37-11.07,3.34-16.77,.26-1.51,1.51-3.87,1.28-5.35,1.85,11.75,.75,21.37-5.32,31.63-1.42,2.4-2.98,4.65-4.65,6.79Z"/>
        <g class="cls-4">
          <path class="cls-1" d="M64.24,26.8c.76,3.59,4.09,5.97,7.4,7.01,.75,.23,1.67-.28,1.85-1.05,.19-.82-.25-1.59-1.05-1.85-.36-.11-.7-.25-1.05-.38,.4,.14,.1,.04,.01,0s-.17-.08-.26-.12c-.17-.08-.34-.17-.5-.26-.32-.17-.63-.36-.93-.56-.08-.05-.15-.11-.23-.16-.05-.04-.28-.25-.11-.08s-.06-.05-.1-.08c-.07-.06-.14-.12-.21-.18-.27-.23-.52-.48-.75-.74-.06-.07-.12-.14-.18-.21-.07-.08-.21-.33,0,.02-.1-.15-.21-.29-.31-.45s-.19-.31-.27-.47c-.04-.08-.08-.16-.12-.24l-.04-.08c-.06-.15-.05-.11,.04,.11-.01-.15-.12-.33-.17-.47-.06-.19-.11-.38-.15-.58-.16-.77-1.11-1.29-1.85-1.05-.81,.26-1.22,1.02-1.05,1.85h0Z"/>
          <path class="cls-1" d="M116.47,58.49c-3.78,9.06-10.33,16.9-18.53,22.29-1.61,1.06-.11,3.66,1.51,2.59,8.91-5.86,15.81-14.25,19.91-24.08,.31-.75-.34-1.64-1.05-1.85-.86-.25-1.53,.3-1.85,1.05h0Z"/>
          <path class="cls-1" d="M116.58,10.45c.7,.3,1.38,.66,2.02,1.08,.16,.1,.31,.21,.46,.32,.08,.05,.16,.14,.25,.18l-.14-.11c.05,.04,.11,.08,.16,.13,.29,.23,.57,.48,.84,.74s.53,.53,.77,.81c.12,.14,.24,.28,.36,.43,.03,.04,.06,.08,.09,.12-.12-.16-.15-.19-.08-.1,.05,.07,.1,.14,.15,.2,.46,.63,.85,1.31,1.18,2.01s1.41,.95,2.05,.54c.73-.47,.9-1.29,.54-2.05-1.43-3.03-4.05-5.57-7.14-6.88-.39-.16-.73-.27-1.16-.15-.35,.1-.73,.36-.9,.69-.34,.64-.23,1.72,.54,2.05h0Z"/>
        </g>
      </g>
      <g>
        <path class="cls-2" d="M22.27,40.54c-.53,6.89,.3,13.33,3.68,19.18,2.31,3.99,2.4,8.2,2.11,12.53-.09,1.3-.42,2.59-.63,3.88-.44,2.7-.45,2.61-3.27,2.88-3.4,.33-13.89,1.22-15.74,4.52-2.05,3.66,3.07,10.72,5.44,13.02,3.72,3.63,8.58,5.85,13.51,7.51,8.08,2.72,16.6,4.12,25.13,4.1,1.46,0,3.02-.08,4.22-.91,1.9-1.33,1.03-4.08,1.07-6.04,.06-2.75,.26-5.47,.12-8.22-.26-5.31-1.3-10.58-3.45-15.46-.47-1.08-.8-1.76,.72-2.26,1.25-.41,2.11-1.46,2.71-2.71,2.84-5.95,2.95-11.92,.11-17.88-.5-1.05-.57-1.92-.12-2.99,1.31-3.08,2.05-6.28,1.89-9.66-.06-1.23-.33-1.62-1.5-.79-3.52,2.52-7.02,5.06-9.94,8.28-.74,.82-1.48,1.03-2.47,.84-3.51-.7-6.99-.43-10.39,.56-1.08,.32-1.56,.03-2.16-.76-2.6-3.43-5.81-6.21-9.34-8.63-.49-.34-1.03-.61-1.71-1Z"/>
        <g class="cls-3">
          <path class="cls-1" d="M51.87,92.19c-.35,1.94-.02,3.81,0,5.76,.01,1.17-.17,2.62-1.06,3.36-1.14,.94-3.27,.64-4.64,.52-1.88-.16-3.73-.6-5.51-1.23-.76-.27-1.64,.31-1.85,1.05-.23,.83,.28,1.57,1.05,1.85,2.08,.74,4.24,1.18,6.43,1.35,2.01,.16,4.41,.25,6.12-1,1.58-1.16,2.23-2.97,2.42-4.86,.2-1.99-.42-4.01-.06-5.99,.14-.8-.22-1.62-1.05-1.85-.73-.2-1.7,.25-1.85,1.05h0Z"/>
        </g>
      </g>
      <circle class="cls-5" cx="79.59" cy="65.38" r="16.11"/>
      <g>
        <path class="cls-1" d="M91.33,63.76c.2,.18,.36,.42,.48,.72,.31,.82-.02,1.83-.75,2.31-.69,.45-1.4,.32-2.16,.37s-1.47,.11-2.22,.13c-1.05,.02-2.11,.04-3.16,.06l-7.79,.14-3.49,.06c-1.25,.02-2.73,.25-3.87-.37-.68-.37-1.2-1.12-1.1-1.89,.1-.75,.77-1.33,1.5-1.55,1.04-.32,2.36-.22,3.45-.24l2.87-.05,6.45-.12c1.98-.04,3.96-.07,5.94-.11,1.16-.02,2.91-.31,3.84,.55Z"/>
        <path class="cls-1" d="M77.97,53.64c.18-.2,.42-.36,.72-.48,.82-.31,1.83,.02,2.31,.75,.45,.69,.32,1.4,.37,2.16s.11,1.47,.13,2.22c.02,1.05,.04,2.11,.06,3.16l.14,7.79c.02,1.16,.04,2.33,.06,3.49,.02,1.25,.25,2.73-.37,3.87-.37,.68-1.12,1.2-1.89,1.1-.75-.1-1.33-.77-1.55-1.5-.32-1.04-.22-2.36-.24-3.45-.02-.96-.03-1.91-.05-2.87l-.12-6.45c-.04-1.98-.07-3.96-.11-5.94-.02-1.16-.31-2.91,.55-3.84Z"/>
      </g>
    </g>
  </g>
</svg>