<?xml version="1.0" encoding="UTF-8"?>
<svg id="Layer_2" data-name="Layer 2" xmlns="http://www.w3.org/2000/svg" xmlns:xlink="http://www.w3.org/1999/xlink" viewBox="0 0 68.8 95.45">
  <defs>
    <style>
      .cls-1 {
        fill: #fff;
      }

      .cls-2 {
        fill: #00989d;
      }

      .cls-3 {
        clip-path: url(#clippath);
      }

      .cls-4 {
        fill: #006868;
      }
    </style>
    <clipPath id="clippath">
      <path class="cls-2" d="M68.8,48.62c-1.02,15.18-4.83,29.21-12.12,42.22-1.16,2.07-2.43,4.9-5.19,4.58-3.12-.37-2.68-3.7-3.16-5.94-.83-3.85-1.07-7.84-2.08-11.64-1-3.78-3.11-7.06-7.65-7.06-4.48,0-6.77,3.02-7.71,6.96-1,4.2-1.57,8.49-2.3,12.75-.35,2.05-.48,4.48-2.95,4.89-2.37,.39-3.64-1.76-4.68-3.49-6.2-10.28-9.72-21.53-11.63-33.3-.94-5.76-1.49-11.54-.21-17.38,1.8-8.21,6.6-11.61,14.68-9.41,9.27,2.53,18.31,3.15,27.74,.43,10.53-3.04,15.41,.67,16.85,11.65,.22,1.67,.3,3.37,.42,4.73Z"/>
    </clipPath>
  </defs>
  <g id="Layer_1-2" data-name="Layer 1">
    <g>
      <g>
        <path class="cls-2" d="M68.8,48.62c-1.02,15.18-4.83,29.21-12.12,42.22-1.16,2.07-2.43,4.9-5.19,4.58-3.12-.37-2.68-3.7-3.16-5.94-.83-3.85-1.07-7.84-2.08-11.64-1-3.78-3.11-7.06-7.65-7.06-4.48,0-6.77,3.02-7.71,6.96-1,4.2-1.57,8.49-2.3,12.75-.35,2.05-.48,4.48-2.95,4.89-2.37,.39-3.64-1.76-4.68-3.49-6.2-10.28-9.72-21.53-11.63-33.3-.94-5.76-1.49-11.54-.21-17.38,1.8-8.21,6.6-11.61,14.68-9.41,9.27,2.53,18.31,3.15,27.74,.43,10.53-3.04,15.41,.67,16.85,11.65,.22,1.67,.3,3.37,.42,4.73Z"/>
        <g class="cls-3">
          <path class="cls-1" d="M29.98,38.81c-2.2,.28-4.3,.03-6.41-.62-1.84-.57-3.82-1.13-5.71-.41s-2.76,2.44-2.86,4.44c-.12,2.2-.05,4.41-.07,6.61-.01,1.37,2.11,1.37,2.13,0,.02-2,.02-4,.05-6,.01-.73,0-1.56,.39-2.21,.35-.59,.98-.87,1.62-1,1.69-.34,3.4,.52,4.99,.94,1.91,.5,3.91,.62,5.87,.37,.57-.07,1.06-.44,1.06-1.06,0-.52-.49-1.14-1.06-1.06h0Z"/>
          <path class="cls-1" d="M62.2,58.06c-.63,5.24-2.48,10.29-5.31,14.74-.74,1.16,1.1,2.23,1.84,1.07,3.04-4.78,4.92-10.19,5.6-15.81,.07-.57-.54-1.06-1.06-1.06-.63,0-.99,.49-1.06,1.06h0Z"/>
        </g>
      </g>
      <path class="cls-4" d="M27.52,1.28c6.97,6.09,13.55,5.73,20.61-1.28-5.94,7.29-7.75,14.02,.8,20.59-.47,.22-.94,.44-1.41,.67-3.17-1.93-6.17-5.02-9.54-5.49-3.63-.51-6.32,3.96-11,5.49,2.34-3.97,5.65-7.11,5.63-10.23-.02-3.26-3.25-6.49-5.08-9.74Z"/>
      <path class="cls-4" d="M16.29,24.38c-5.96-5.86-10.91-3.96-16.29,.03,1.49-2.61,4.04-5.18,4.14-7.84,.1-2.49-2.41-5.08-3.66-8.37,5.16,4.59,10.18,5.71,15.72-.06-4.09,5.59-5.36,10.65,.08,16.23Z"/>
    </g>
  </g>
</svg>