<?xml version="1.0" encoding="UTF-8"?>
<svg id="Layer_2" data-name="Layer 2" xmlns="http://www.w3.org/2000/svg" viewBox="0 0 96.2 95">
  <defs>
    <style>
      .cls-1 {
        fill: #00989d;
      }

      .cls-2 {
        fill: #006868;
      }
    </style>
  </defs>
  <g id="Layer_1-2" data-name="Layer 1">
    <g>
      <path class="cls-1" d="M15.07,36.2c3.51-.21,7.04-.31,10.57-.43,2.95-.1,5.19-.85,7.92,.83,2.16,1.33,3.75,3.56,4.22,6.06,1.51,8.03-5.88,13.93-8.09,21.25-2.27,7.51-1.65,16.88,5.33,21.49,8.02,5.3,21.28,5.61,28.64-1.02,6.36-5.73,3.71-14,1.24-20.98-1.48-4.17-3.08-8.29-4.57-12.45-.62-1.73-1.02-3.53-1.14-5.38-.32-4.77,2.26-8.47,6.86-9.79,1.42-.4,2.87-.63,4.34-.63,7.71,0,15.39,1.07,23.06,2.16,.68,.1,1.39,.21,1.96,.59s.97,1.12,.74,1.76c-.28,.8-1.26,1.05-2.1,1.17-6.96,1.02-14.56,.29-21.63,.13-1.65-.04-3.31-.02-4.91,.51-1.83,.61-2.62,1.75-2.49,3.69,.11,1.69,.64,3.29,1.2,4.88,1.53,4.38,3.4,8.63,4.77,13.06,1.21,3.9,2.04,7.85,1.56,11.96-.98,8.46-5.37,14.46-13.26,17.64-8.37,3.37-16.78,3.04-24.89-.91-9.5-4.63-13.74-13.95-11.24-24.21,.93-3.81,2.65-7.31,4.33-10.82,1.24-2.6,2.51-5.18,3.74-7.78,.72-1.52,1.13-3.11,.88-4.81-.72-4.77-9.29-4.05-12.81-4.25-5.77-.33-11.57-.12-17.3,.62-.59,.08-1.28,.13-1.7-.3-.48-.49-.29-1.36,.21-1.82s1.21-.62,1.88-.75c4.21-.81,8.45-1.22,12.7-1.47Z"/>
      <path class="cls-2" d="M57.18,72.04c0,.89-.12,1.78-.43,2.68-2.59,7.57-14.34,7.62-16.52-.21-.53-1.92-.41-3.95-.23-5.93,.72-7.79,2.8-14.98,4.68-22.52,1.71-6.87,2.47-13.85,5.14-20.53,3.02-7.56,7.81-13.91,13.53-19.61,1.89-1.88,3.88-3.66,5.92-5.37,.16-.14,.33-.28,.51-.39,.29-.18,.6-.24,.88,.03,.25,.25,.22,.54,.06,.81-.16,.28-.34,.54-.53,.8-3.6,5.13-7.05,10.35-10.02,15.88-3.52,6.55-5.76,13.73-6.6,21.12-.51,4.5-.38,9.06-.46,13.59-.08,4.09,.31,8.21,1.9,12.02,1.01,2.44,2.17,5,2.18,7.63Z"/>
      <path class="cls-2" d="M84.06,49.7c.03-3.45,4.92-5.07,6.7-1.89,.39,.7,.38,1.54,.37,2.33-.01,.73-.03,1.47-.23,2.17s-.62,1.37-1.26,1.72c-.85,.46-1.93,.28-2.75-.22-1.41-.84-2.83-2.42-2.82-4.13Z"/>
      <path class="cls-2" d="M7.62,49.7c0-.25,0-.5,.05-.75,.48-2.65,3.98-3.79,6.15-2.34,1.05,.7,1.64,2.01,1.52,3.27s-.93,2.41-2.05,3c-1.26,.67-2.88,.59-4.05-.21-.96-.66-1.58-1.8-1.62-2.97Z"/>
      <path class="cls-2" d="M14.03,67.56c-1.62-.15-3.33-1.89-4.06-3.14-.33-.57-.59-1.22-.53-1.87,.1-1.01,.94-1.83,1.89-2.2,2.66-1.03,6.39-.01,6.41,3.35,0,1.7-1.49,3.73-3.31,3.87-.13,.01-.26,0-.4,0Z"/>
      <path class="cls-2" d="M7.51,79.19c-1.96-.18-3.68-1.35-3.67-3.74,.02-3.99,4.42-4.12,7.1-2.68,1.02,.55,1.88,1.53,1.96,2.68,.1,1.39-.97,2.65-2.24,3.22-.96,.43-2.09,.62-3.15,.52Z"/>
      <path class="cls-2" d="M80.31,57.8c1.86-.24,3.68,1.05,3.7,3.44,.01,2.69-3.03,4.57-5.44,3.23-.92-.51-1.51-1.52-1.59-2.57s.34-2.11,1.06-2.87c.67-.72,1.48-1.11,2.28-1.22Z"/>
      <path class="cls-2" d="M80.21,78.14c.09-.69,.45-1.37,.95-1.88,1.05-1.06,2.99-2.11,4.44-1.46,1.32,.59,2.15,1.94,2.14,3.38,0,3.47-3.32,4.28-5.88,2.7-.6-.37-1.18-.83-1.47-1.47-.19-.4-.23-.85-.18-1.28Z"/>
    </g>
  </g>
</svg>