<?xml version="1.0" encoding="UTF-8"?>
<svg id="Layer_2" data-name="Layer 2" xmlns="http://www.w3.org/2000/svg" xmlns:xlink="http://www.w3.org/1999/xlink" viewBox="0 0 104.08 109">
  <defs>
    <style>
      .cls-1 {
        fill: #fff;
      }

      .cls-2 {
        clip-path: url(#clippath-2);
      }

      .cls-3 {
        clip-path: url(#clippath-1);
      }

      .cls-4 {
        fill: #ffb203;
      }

      .cls-5 {
        clip-path: url(#clippath);
      }

      .cls-6 {
        clip-path: url(#clippath-3);
      }

      .cls-7 {
        fill: #006868;
      }
    </style>
    <clipPath id="clippath">
      <circle class="cls-7" cx="69.19" cy="6.58" r="3.66"/>
    </clipPath>
    <clipPath id="clippath-1">
      <circle class="cls-7" cx="33.33" cy="6.71" r="3.66"/>
    </clipPath>
    <clipPath id="clippath-2">
      <path class="cls-4" d="M68.83,67.94c-2.86,1.38-5.11,4.1-5.61,7.26-.88,5.56,3.22,10.23,8.52,10.87-4.17,2.42-7.05,7.19-5.75,12.09,2.5,9.41,14.85,12.96,23.04,9.62,6.59-2.69,11.36-8.86,13.49-15.65,2.13-6.79,1.87-14.13,.5-21.11-1.5-7.65-4.48-15.33-10.22-20.6-8.12-7.46-23.3-8.5-27.79,3.25-2.17,5.69,2.15,13.05,8.24,13.34-1.53-.07-3.04,.28-4.42,.94Z"/>
    </clipPath>
    <clipPath id="clippath-3">
      <path class="cls-4" d="M35.26,67.94c2.86,1.38,5.11,4.1,5.61,7.26,.88,5.56-3.22,10.23-8.52,10.87,4.17,2.42,7.05,7.19,5.75,12.09-2.5,9.41-14.85,12.96-23.04,9.62-6.59-2.69-11.36-8.86-13.49-15.65-2.13-6.79-1.87-14.13-.5-21.11,1.5-7.65,4.48-15.33,10.22-20.6,8.12-7.46,23.3-8.5,27.79,3.25,2.17,5.69-2.15,13.05-8.24,13.34,1.53-.07,3.04,.28,4.42,.94Z"/>
    </clipPath>
  </defs>
  <g id="Layer_1-2" data-name="Layer 1">
    <g>
      <g>
        <path class="cls-4" d="M68.14,7.35c-6.45,4.64-15.71,8.18-23.6,5.81-3.44-1.03-6.19-3.23-8.39-6.02-.71-.9-2.26-.74-3.01,0-.89,.89-.71,2.1,0,3.01,4.31,5.47,10.84,8.34,17.78,7.96,5.59-.3,11.01-2.26,15.88-4.94,1.19-.65,2.37-1.35,3.48-2.14,.93-.67,1.38-1.85,.76-2.91-.54-.92-1.97-1.44-2.91-.76h0Z"/>
        <path class="cls-4" d="M30.76,10.52c.02,6.27,1.33,12.48,4.09,18.13,2.42,4.95,5.57,10.29,10.8,12.65,3.93,1.78,8.71,2.01,12.79,.66,2.93-.97,5.57-2.73,7.49-5.15,1.81-2.29,3.01-4.97,4.06-7.68,2.47-6.38,2.76-13.35,1.62-20.04-.19-1.13-1.59-1.77-2.62-1.48-1.2,.33-1.68,1.48-1.48,2.62,.83,4.84,.71,9.87-.57,14.61s-3.59,10.22-8.38,12.54c-3.1,1.5-6.96,1.56-10.15,.49-4.51-1.51-6.96-5.91-9.09-9.83-2.92-5.39-4.28-11.4-4.29-17.5,0-2.74-4.26-2.74-4.25,0h0Z"/>
        <path class="cls-4" d="M50.25,15.94c-.09,12.76-.19,25.51-.28,38.27-.04,5.22-.48,10.43-.44,15.65,.03,4.83,.74,9.7,3.06,14,3.22,5.96,9.23,9.54,14.54,13.41,.93,.68,2.37,.16,2.91-.76,.63-1.08,.17-2.23-.76-2.91-4.38-3.2-9.52-6.16-12.44-10.89-2.39-3.88-3.02-8.37-3.05-12.85-.03-4.89,.4-9.77,.44-14.66,.04-6.13,.09-12.26,.13-18.39,.05-6.96,.1-13.92,.15-20.88,.02-2.74-4.23-2.74-4.25,0h0Z"/>
        <path class="cls-4" d="M49.53,70.63c-.42,3.71-2.35,7.84-4.83,10.89-1.29,1.58-2.77,3.06-4.45,4.18-.76,.5-1.75,1.06-2.45,1.36-.59,.25-1.81,.82-2.34,.51-2.38-1.36-4.52,2.31-2.15,3.67,2.6,1.49,5.85,.06,8.2-1.31,2.21-1.29,4.19-3.02,5.85-4.97,3.46-4.06,5.82-9,6.43-14.32,.13-1.14-1.07-2.13-2.13-2.13-1.26,0-2,.98-2.13,2.13h0Z"/>
      </g>
      <g>
        <circle class="cls-4" cx="69.19" cy="6.58" r="6.58"/>
        <g>
          <circle class="cls-7" cx="69.19" cy="6.58" r="3.66"/>
          <g class="cls-5">
            <path class="cls-1" d="M67.23,5.38c0,.24,.16,.47,.39,.57,.02,0,.04,.01,.06,.02,.21,.06,.46,0,.61-.15,.67-.69-1.08-1.29-1.05-.43Z"/>
            <path class="cls-1" d="M70.77,5.09c-.1-.1-.28-.05-.37,.06-.15,.17-.15,.47,.01,.63s.45,.18,.63,.03,.22-.44,.08-.63-.42-.25-.62-.13"/>
            <path class="cls-1" d="M67.36,8.37c.19,.15,.47,.13,.68,.02,.47-.26,.58-1.15-.1-1.18-.53-.02-1.1,.77-.59,1.16Z"/>
            <path class="cls-1" d="M70.62,7.26c-.28,0-.51,.31-.45,.58,.06,.28,.39,.47,.67,.37s.42-.45,.29-.71-.49-.36-.74-.21"/>
          </g>
        </g>
      </g>
      <g>
        <circle class="cls-4" cx="33.33" cy="6.71" r="6.58"/>
        <g>
          <circle class="cls-7" cx="33.33" cy="6.71" r="3.66"/>
          <g class="cls-3">
            <path class="cls-1" d="M31.37,5.5c0,.24,.16,.47,.39,.57,.02,0,.04,.01,.06,.02,.21,.06,.46,0,.61-.15,.67-.69-1.08-1.29-1.05-.43Z"/>
            <path class="cls-1" d="M34.92,5.22c-.1-.1-.28-.05-.37,.06-.15,.17-.15,.47,.01,.63s.45,.18,.63,.03,.22-.44,.08-.63-.42-.25-.62-.13"/>
            <path class="cls-1" d="M31.5,8.5c.19,.15,.47,.13,.68,.02,.47-.26,.58-1.15-.1-1.18-.53-.02-1.1,.77-.59,1.16Z"/>
            <path class="cls-1" d="M34.77,7.39c-.28,0-.51,.31-.45,.58,.06,.28,.39,.47,.67,.37s.42-.45,.29-.71-.49-.36-.74-.21"/>
          </g>
        </g>
      </g>
      <g>
        <path class="cls-4" d="M68.83,67.94c-2.86,1.38-5.11,4.1-5.61,7.26-.88,5.56,3.22,10.23,8.52,10.87-4.17,2.42-7.05,7.19-5.75,12.09,2.5,9.41,14.85,12.96,23.04,9.62,6.59-2.69,11.36-8.86,13.49-15.65,2.13-6.79,1.87-14.13,.5-21.11-1.5-7.65-4.48-15.33-10.22-20.6-8.12-7.46-23.3-8.5-27.79,3.25-2.17,5.69,2.15,13.05,8.24,13.34-1.53-.07-3.04,.28-4.42,.94Z"/>
        <g class="cls-2">
          <path class="cls-1" d="M70.11,54.97c.07-.35,.16-.69,.28-1.03,.03-.08,.06-.17,.09-.25,.02-.06,.04-.11,.07-.16l-.08,.19c.1-.12,.16-.34,.23-.48,.17-.32,.35-.62,.56-.91,.05-.07,.12-.14,.16-.22-.16,.34-.1,.13-.01,.02,.12-.15,.25-.29,.38-.43,.25-.26,.51-.5,.78-.73,.26-.21-.14,.1-.02,.02,.07-.05,.14-.1,.22-.16,.15-.1,.3-.2,.45-.29s.31-.18,.47-.26c.08-.04,.16-.08,.24-.12,.05-.02,.35-.16,.11-.05s.06-.02,.11-.04c.08-.03,.17-.06,.25-.09,.18-.06,.37-.11,.56-.16,.76-.19,1.29-1.09,1.05-1.85s-1.03-1.25-1.85-1.05c-3.4,.86-6.24,3.78-6.93,7.23-.15,.77,.22,1.66,1.05,1.85,.75,.17,1.68-.22,1.85-1.05h0Z"/>
          <path class="cls-1" d="M99.44,86.6c.15,1.95-.15,3.86-.91,5.56-.79,1.78-1.98,3.38-3.44,4.49-.64,.49-.98,1.29-.54,2.05,.37,.63,1.4,1.03,2.05,.54,3.88-2.96,6.21-7.73,5.83-12.64-.06-.81-.65-1.5-1.5-1.5-.76,0-1.56,.69-1.5,1.5h0Z"/>
        </g>
      </g>
      <g>
        <path class="cls-4" d="M35.26,67.94c2.86,1.38,5.11,4.1,5.61,7.26,.88,5.56-3.22,10.23-8.52,10.87,4.17,2.42,7.05,7.19,5.75,12.09-2.5,9.41-14.85,12.96-23.04,9.62-6.59-2.69-11.36-8.86-13.49-15.65-2.13-6.79-1.87-14.13-.5-21.11,1.5-7.65,4.48-15.33,10.22-20.6,8.12-7.46,23.3-8.5,27.79,3.25,2.17,5.69-2.15,13.05-8.24,13.34,1.53-.07,3.04,.28,4.42,.94Z"/>
        <g class="cls-6">
          <path class="cls-1" d="M10.17,54.32c-2.89,4.15-4.51,9.1-4.71,14.16-.08,1.93,2.92,1.93,3,0,.18-4.55,1.7-8.91,4.3-12.64,.46-.66,.12-1.67-.54-2.05-.75-.44-1.59-.13-2.05,.54h0Z"/>
          <path class="cls-1" d="M34.11,97.87c-.18,.85-.36,1.69-.69,2.49l.15-.36c-.18,.41-.4,.8-.67,1.16l.23-.3c-.2,.25-.41,.47-.66,.67l.3-.23c-.17,.13-.35,.25-.55,.35-.7,.36-.96,1.4-.54,2.05,.46,.71,1.3,.92,2.05,.54,2.09-1.07,2.82-3.42,3.27-5.56,.08-.4,.06-.8-.15-1.16-.18-.31-.54-.61-.9-.69-.75-.17-1.67,.23-1.85,1.05h0Z"/>
        </g>
      </g>
      <path class="cls-7" d="M86.48,87.18c2.37,.97,4.27,2.41,5.03,5.01,.12,.9,.92,2.17-.23,2.55-1.32,.45-1.49-1.06-1.9-1.97-.11-.25-.18-.53-.31-.77-.52-.92-1.17-2.12-2.18-1.97-1.14,.17-.84,1.62-.77,2.45,.29,3.66-1.24,6.7-3,9.7-1.24,.52-1.9,.26-1.64-1.23,1.03-1.36,1.29-3,1.73-4.58,.35-1.24-.21-1.57-1.41-1.47-1.81,.16-2.7,1.47-3.69,2.68-.57,.98-1.19,1.93-1.69,2.94-.42,.85-.95,.82-1.63,.41-.56-.73-.25-1.45,.04-2.16,1.27-3.14,3.42-5.34,6.68-6.41,2.48-.81,2.4-.82,1.99-3.42-.47-3.01-1.77-5.54-4.03-7.57-1.88-1.69-3.95-2.56-6.49-1.42-.82,.37-1.73,.57-2.64,.5-.99-.07-1.81-.35-1.41-1.64h0c.88-1.04,2.21-1.11,3.36-1.55,7.01-2.69,8.78-7.65,8.79-13.47,0-2.7-2.16-4.72-4.23-6.45-.8-.67-1.72-1.19-2.41-1.99-.33-.39-.52-.87-.25-1.35,.35-.62,.88-.55,1.43-.25,1.25,.98,2.5,1.96,3.75,2.94,.46,.3,.97,.49,1.38,.89,.4,.4,.64,1.31,1.39,.9,.57-.31,.41-1.12,.43-1.73,.05-1.65-.07-3.31,.07-4.96,.08-1.01,.27-2.06,1.75-1.38,.8,2.67,.52,5.35-.09,7.98-.19,.82-.33,1.62-.33,2.45-.34,.63-.48,1.37-.37,2,.61,3.46-.44,6.59-1.84,9.64-.58,1.27-.18,1.56,1.06,1.6,2.49,.07,4.3-.92,5.41-3.14,.44-.87,.84-1.75,1.07-2.7,.19-.81,.43-1.85,1.5-1.63,1.19,.25,1.01,1.26,.69,2.17-.42,1.11-.83,2.23-1.25,3.34-.15,.23,.02-.07-.13,.17-1.45,2.25-1.42,2.22,.42,4.13,.75,.78,1.84,1.32,2,2.56-.44,1.61-1.25,.74-1.93,.25-3.54-2.56-7.63-3.2-11.74-1.8-.08,.34,.16,.52,.39,.63,2.86,1.4,4.39,3.93,5.72,6.63,.43,.87,.83,1.75,1.51,2.46Z"/>
      <path class="cls-7" d="M16.71,87.18c-2.37,.97-4.27,2.41-5.03,5.01-.12,.9-.92,2.17,.23,2.55,1.32,.45,1.49-1.06,1.9-1.97,.11-.25,.18-.53,.31-.77,.52-.92,1.17-2.12,2.18-1.97,1.14,.17,.84,1.62,.77,2.45-.29,3.66,1.24,6.7,3,9.7,1.24,.52,1.9,.26,1.64-1.23-1.03-1.36-1.29-3-1.73-4.58-.35-1.24,.21-1.57,1.41-1.47,1.81,.16,2.7,1.47,3.69,2.68,.57,.98,1.19,1.93,1.69,2.94,.42,.85,.95,.82,1.63,.41,.56-.73,.25-1.45-.04-2.16-1.27-3.14-3.42-5.34-6.68-6.41-2.48-.81-2.4-.82-1.99-3.42,.47-3.01,1.77-5.54,4.03-7.57,1.88-1.69,3.95-2.56,6.49-1.42,.82,.37,1.73,.57,2.64,.5,.99-.07,1.81-.35,1.41-1.64h0c-.88-1.04-2.21-1.11-3.36-1.55-7.01-2.69-8.78-7.65-8.79-13.47,0-2.7,2.16-4.72,4.23-6.45,.8-.67,1.72-1.19,2.41-1.99,.33-.39,.52-.87,.25-1.35-.35-.62-.88-.55-1.43-.25-1.25,.98-2.5,1.96-3.75,2.94-.46,.3-.97,.49-1.38,.89-.4,.4-.64,1.31-1.39,.9-.57-.31-.41-1.12-.43-1.73-.05-1.65,.07-3.31-.07-4.96-.08-1.01-.27-2.06-1.75-1.38-.8,2.67-.52,5.35,.09,7.98,.19,.82,.33,1.62,.33,2.45,.34,.63,.48,1.37,.37,2-.61,3.46,.44,6.59,1.84,9.64,.58,1.27,.18,1.56-1.06,1.6-2.49,.07-4.3-.92-5.41-3.14-.44-.87-.84-1.75-1.07-2.7-.19-.81-.43-1.85-1.5-1.63-1.19,.25-1.01,1.26-.69,2.17,.42,1.11,.83,2.23,1.25,3.34,.15,.23-.02-.07,.13,.17,1.45,2.25,1.42,2.22-.42,4.13-.75,.78-1.84,1.32-2,2.56,.44,1.61,1.25,.74,1.93,.25,3.54-2.56,7.63-3.2,11.74-1.8,.08,.34-.16,.52-.39,.63-2.86,1.4-4.39,3.93-5.72,6.63-.43,.87-.83,1.75-1.51,2.46Z"/>
    </g>
  </g>
</svg>