<?xml version="1.0" encoding="UTF-8"?>
<svg id="Layer_2" data-name="Layer 2" xmlns="http://www.w3.org/2000/svg" xmlns:xlink="http://www.w3.org/1999/xlink" viewBox="0 0 194.1 105.75">
  <defs>
    <style>
      .cls-1 {
        fill: #fff;
      }

      .cls-2 {
        clip-path: url(#clippath-2);
      }

      .cls-3 {
        fill: #f4f3ee;
      }

      .cls-4 {
        clip-path: url(#clippath-1);
      }

      .cls-5 {
        fill: #ffb203;
      }

      .cls-6 {
        fill: #00989d;
      }

      .cls-7 {
        clip-path: url(#clippath);
      }

      .cls-8 {
        fill: #006868;
      }
    </style>
    <clipPath id="clippath">
      <path class="cls-8" d="M192.1,73.1c-.38-3.29-1.23-6.29-2.32-8.31-4.6-8.49-9.04-6.11-17.32-7.83-3.91-.79-9.08-3.66-10.76-7.47-2.15-4.85-3.04-10.83-3.79-16.06-.05-.23-.08-.49-.12-.74-.62-4.18-1.43-8.71-5.56-10.88-2.15-1.12-4.68-1.16-7.1-1.16-8.38-.03-16.74-.05-25.09-.07-12.07-.03-24.19-.07-36.14,1.64-14.64,2.08-30.06,7.7-37.8,20.29-5.02,8.17-6.08,18.16-5.93,27.75,.1,6.66,.47,13.33,.89,19.96,.07,1.07,.17,2.2,.79,3.06,.71,.96,1.9,1.39,3.02,1.76,2.13,.71,4.26,1.38,6.38,2.13,1.93,.69,3.54,.39,5.59,.18-.45,.04-.93-3.43-1.06-3.98-.53-2.23-.63-4.84-.42-7.12,.79-8.63,10.86-13.31,18.75-12.3,5.68,.73,11,4.77,12.55,10.29,.49,1.77,.62,3.65,1.34,5.33,1.77,4.13,6.54,3.22,10.22,3.1,3.63-.12,7.25-.24,10.88-.35,7.17-.23,14.35-.46,21.52-.7,1.51-.05,3.07-.12,4.4-.86,3.76-2.09,4.73-7.53,7.06-10.81,2.47-3.48,6.33-6.01,10.56-6.68,.53-.08,1.07-.14,1.61-.17,3.98-.19,8.75,.87,11.65,3.74,1.86,1.84,2.79,4.23,4.29,6.29,1.41,1.94,1.64,3.78,2.05,6.07,.22,1.25,.73,2.56,1.8,3.23,.8,.5,1.79,.56,2.73,.57,4.18,.03,8.5-.55,11.6-3.55,3.42-3.31,4.07-8.82,3.95-13.33-.03-1.02-.1-2.03-.22-3.04Zm-81.87-25.11c.89-3.94,1.78-7.89,2.67-11.82,.15-.69,25.03-3.53,26.45-2.8,5.93,2.92,5.72,13.09,6.93,19.03-12.02-1.48-24.04-2.95-36.06-4.41Z"/>
    </clipPath>
    <clipPath id="clippath-1">
      <circle class="cls-8" cx="155.47" cy="90.64" r="8.39"/>
    </clipPath>
    <clipPath id="clippath-2">
      <circle class="cls-8" cx="71.54" cy="90.64" r="8.39"/>
    </clipPath>
  </defs>
  <g id="Layer_1-2" data-name="Layer 1">
    <g>
      <path class="cls-6" d="M4.74,51.57c.83,2.18,3.71,2.54,6.05,2.54,6.33,0,12.65,.01,18.98,.02,1.61,0,3.28,0,4.75-.68,2.99-1.38,2.68-3.98-.56-3.74-3.28,.24-6.63,1.39-9.93,1.78-3.24,.38-6.51,.58-9.78,.59-1.03,0-9.2,.31-9.5-.51Z"/>
      <path class="cls-6" d="M0,71.08c.83-2.18,3.71-2.54,6.05-2.54,6.33,0,12.65-.01,18.98-.02,1.61,0,3.28,0,4.75,.68,2.99,1.38,2.68,3.98-.56,3.74-3.28-.24-6.63-1.39-9.93-1.78-3.24-.38-6.51-.58-9.78-.59-1.03,0-9.2-.31-9.5,.51Z"/>
      <path class="cls-6" d="M15.83,60.55c-.61,0-1.38,.12-1.52,.71-.09,.39,.19,.79,.54,.97s.77,.2,1.17,.21c4.13,.12,8.25,.76,12.37,.25,.94-.11,2.11-.53,2.13-1.48,0-.58-.49-1.07-1.05-1.24-.56-.17-1.15-.1-1.73-.03-3.95,.5-7.91,.6-11.9,.6Z"/>
      <g>
        <path class="cls-8" d="M192.1,73.1c-.38-3.29-1.23-6.29-2.32-8.31-4.6-8.49-9.04-6.11-17.32-7.83-3.91-.79-9.08-3.66-10.76-7.47-2.15-4.85-3.04-10.83-3.79-16.06-.05-.23-.08-.49-.12-.74-.62-4.18-1.43-8.71-5.56-10.88-2.15-1.12-4.68-1.16-7.1-1.16-8.38-.03-16.74-.05-25.09-.07-12.07-.03-24.19-.07-36.14,1.64-14.64,2.08-30.06,7.7-37.8,20.29-5.02,8.17-6.08,18.16-5.93,27.75,.1,6.66,.47,13.33,.89,19.96,.07,1.07,.17,2.2,.79,3.06,.71,.96,1.9,1.39,3.02,1.76,2.13,.71,4.26,1.38,6.38,2.13,1.93,.69,3.54,.39,5.59,.18-.45,.04-.93-3.43-1.06-3.98-.53-2.23-.63-4.84-.42-7.12,.79-8.63,10.86-13.31,18.75-12.3,5.68,.73,11,4.77,12.55,10.29,.49,1.77,.62,3.65,1.34,5.33,1.77,4.13,6.54,3.22,10.22,3.1,3.63-.12,7.25-.24,10.88-.35,7.17-.23,14.35-.46,21.52-.7,1.51-.05,3.07-.12,4.4-.86,3.76-2.09,4.73-7.53,7.06-10.81,2.47-3.48,6.33-6.01,10.56-6.68,.53-.08,1.07-.14,1.61-.17,3.98-.19,8.75,.87,11.65,3.74,1.86,1.84,2.79,4.23,4.29,6.29,1.41,1.94,1.64,3.78,2.05,6.07,.22,1.25,.73,2.56,1.8,3.23,.8,.5,1.79,.56,2.73,.57,4.18,.03,8.5-.55,11.6-3.55,3.42-3.31,4.07-8.82,3.95-13.33-.03-1.02-.1-2.03-.22-3.04Zm-81.87-25.11c.89-3.94,1.78-7.89,2.67-11.82,.15-.69,25.03-3.53,26.45-2.8,5.93,2.92,5.72,13.09,6.93,19.03-12.02-1.48-24.04-2.95-36.06-4.41Z"/>
        <g class="cls-7">
          <path class="cls-6" d="M194.1,66.87c-9.49,.89-18.99,1.62-28.51,2.18-10.03,.59-20.08,1-30.12,1.23-2.8,.06-6.01-.45-8.69,.26-2.95,.78-5.8,1.96-8.44,3.48-2.63,1.51-5.12,3.39-8.02,4.27-3.63,1.11-7.68,.36-10.84-1.69-1.53-.99-2.94-2.33-3.87-3.91-.99-1.7-2.07-2.31-4.12-2.64-2.37-.38-5.07-.13-7.49-.22-5.1-.2-10.19-.45-15.29-.75-2.4-.14-29.03-1.62-29.03-2.21,0-3,0-6,0-9,9.84,.88,19.7,1.6,29.57,2.16,9.11,.52,19.46,2.52,27.62-2.41,3.57-2.16,7.41-5.38,11.85-5.04,4.65,.36,8.7,3.7,12.54,6,2.67,1.6,5.69,3.01,8.86,3.06,3.43,.06,6.95-.27,10.4-.35,7.44-.16,14.89-.41,22.33-.75,4.87-.22,9.74-.49,14.6-.79,1.24-.08,13.79-1.42,13.94-.97,.9,2.7,1.8,5.4,2.7,8.1Z"/>
          <rect class="cls-5" x="106.49" y="55.27" width="3.34" height="20.42"/>
          <rect class="cls-5" x="106.12" y="54.89" width="3.34" height="20.42" transform="translate(42.69 172.89) rotate(-90)"/>
          <path class="cls-1" d="M65.38,33.3c-5.39,1.35-10.27,4.66-13.51,9.19,4.99-1.95,9.61-4.84,13.55-8.47"/>
          <path class="cls-1" d="M181.96,86.05c-.2,.73,1.63,1.4,2.72,1.09,1.13-.33,2-1.21,2.67-2.18,1.27-1.83,1.99-3.61,1.36-5.74-.22-.1-.48,.02-.63,.21s-.2,.43-.26,.66c-.65,2.4-2.54,4.42-4.88,5.25-.62,.22-.92,.47-.98,.71Z"/>
        </g>
      </g>
      <path class="cls-5" d="M125.44,1.14C126.95,.37,128.82,.02,130.66,0c9.85-.1,7.98,11.86,7.95,18.25,0,.43-.03,.91-.42,1.22-.4,.32-1.05,.34-1.62,.34-1.95,0-3.88,.22-5.8,.23-2.31,.01-4.64-.16-6.94-.24-.34-.01-.69-.02-1.01-.13-.53-.18-.87-.61-.99-1.06-.2-.74,.03-1.6,.05-2.35,0-.21,0-.41,.01-.62,.01-.52,.03-1.05,.05-1.57,.02-.49,.15-1.03,.08-1.52-.14-.94,.17-1.82,.13-2.72-.06-1.12-.24-2.21-.15-3.34,.11-1.29,.49-2.59,1.36-3.69,.54-.69,1.26-1.24,2.08-1.67Z"/>
      <g>
        <circle class="cls-5" cx="155.47" cy="90.64" r="15.11"/>
        <g>
          <circle class="cls-8" cx="155.47" cy="90.64" r="8.39"/>
          <g class="cls-4">
            <path class="cls-1" d="M150.97,87.87c.02,.55,.37,1.08,.88,1.3,.04,.02,.08,.03,.13,.05,.48,.15,1.05,.01,1.4-.35,1.53-1.58-2.48-2.97-2.42-.99Z"/>
            <path class="cls-1" d="M159.1,87.22c-.22-.23-.64-.11-.85,.13-.35,.4-.34,1.07,.03,1.45s1.04,.42,1.45,.08,.5-1.01,.19-1.44-.97-.57-1.42-.3"/>
            <path class="cls-1" d="M151.26,94.74c.44,.34,1.08,.3,1.57,.04,1.08-.59,1.33-2.64-.22-2.71-1.22-.06-2.53,1.77-1.35,2.67Z"/>
            <path class="cls-1" d="M158.76,92.19c-.65,0-1.18,.71-1.04,1.34,.14,.65,.91,1.07,1.53,.86s.96-1.02,.68-1.62-1.13-.84-1.69-.48"/>
          </g>
        </g>
      </g>
      <g>
        <circle class="cls-5" cx="71.54" cy="90.64" r="15.11"/>
        <g>
          <circle class="cls-8" cx="71.54" cy="90.64" r="8.39"/>
          <g class="cls-2">
            <path class="cls-1" d="M67.92,88.63c.47,.01,.91-.29,1.13-.7,.33-.6,0-1.35-.62-1.6-.26-.11-.56-.1-.82,0-.39,.15-.69,.51-.75,.93-.1,.67,.38,1.36,1.06,1.37Z"/>
            <path class="cls-1" d="M74.24,86.91c.49-.16,1.08,.12,1.27,.6,.18,.48-.07,1.09-.55,1.29s-1.09-.03-1.31-.5-.02-1.09,.44-1.33"/>
            <path class="cls-1" d="M74.91,92.76c.55-.05,1.11,.39,1.18,.94,.07,.55-.36,1.12-.91,1.2s-1.13-.32-1.23-.87,.29-1.14,.83-1.26"/>
            <path class="cls-1" d="M68.81,95c.63-.24,.95-1.05,.71-1.68-.25-.65-1.04-1.1-1.66-.64-.26,.19-.42,.5-.51,.81-.13,.47-.14,.84,.22,1.17,.33,.31,.79,.51,1.24,.34Z"/>
          </g>
        </g>
      </g>
      <path class="cls-3" d="M125.76,10.12c0,1.03-.04,2.09-.2,3.12-.07,.42-.1,.71-.06,1.14,.02,.23,.09,1.6-.26,1.54-.25-.04-.19-1.44-.2-1.69-.05-1-.1-2-.14-3-.04-.92,.15-1.79,.14-2.7-.01-.88-.03-1.77-.04-2.65,0-.15,0-.32,.14-.4,.46-.29,.49,1.58,.51,1.83,.09,.93,.13,1.87,.12,2.81Z"/>
      <path class="cls-3" d="M133.62,15.81c-.17-.15-.25-.38-.28-.61s0-.46,.02-.68c.19-2.29-.31-4.55-.27-6.84,.01-.57,0-1.26,.15-1.81,.03-.11,.16-.42,.33-.36s.03,.31,0,.43c-.11,.59-.07,1.18,.02,1.78,.11,.76,.29,1.5,.38,2.26s-.04,1.41-.07,2.14c-.03,.67,.15,1.33,.19,2s-.07,1.4-.56,1.87"/>
      <path class="cls-1" d="M128.9,15.93c0,.29,.02,.58,.05,.87,.01,.12,.09,.29,.21,.24,.05-.02,.07-.08,.09-.13,.39-1.1,.54-2.25,.68-3.41,.16-1.04,.26-2.09,.31-3.15,.05-.97,.04-1.95-.09-2.91-.07-.48-.17-.96-.31-1.43-.04-.14-.08-.46-.26-.46-.53,.01-.13,1.71-.1,1.94,.13,.98,.15,1.98,.06,2.96-.16,1.85-.65,3.63-.64,5.48Z"/>
    </g>
  </g>
</svg>