<?xml version="1.0" encoding="UTF-8"?>
<svg id="Layer_2" data-name="Layer 2" xmlns="http://www.w3.org/2000/svg" viewBox="0 0 35.47 37.19">
  <defs>
    <style>
      .cls-1 {
        stroke: #ffb203;
      }

      .cls-1, .cls-2 {
        fill: none;
        stroke-miterlimit: 10;
        stroke-width: 2.83px;
      }

      .cls-2 {
        stroke: #006868;
      }
    </style>
  </defs>
  <g id="Layer_1-2" data-name="Layer 1">
    <g>
      <path class="cls-1" d="M17.73,22.18h0c2.75,0,4.99,2.23,4.99,4.99v6.92c0,.93-.76,1.69-1.69,1.69h-6.6c-.93,0-1.69-.76-1.69-1.69v-6.92c0-2.75,2.23-4.99,4.99-4.99Z"/>
      <path class="cls-2" d="M20.6,2.25l10.99,7.02c1.53,.98,2.46,2.67,2.46,4.49v10.16c0,6.55-5.31,11.85-11.85,11.85H13.27c-6.55,0-11.85-5.31-11.85-11.85V13.76c0-1.82,.93-3.51,2.46-4.49L14.87,2.25c1.75-1.12,3.98-1.12,5.73,0Z"/>
    </g>
  </g>
</svg>