<?xml version="1.0" encoding="UTF-8"?>
<svg id="Layer_2" data-name="Layer 2" xmlns="http://www.w3.org/2000/svg" xmlns:xlink="http://www.w3.org/1999/xlink" viewBox="0 0 161.3 104.49">
  <defs>
    <style>
      .cls-1 {
        fill: #fff;
      }

      .cls-2 {
        fill: #d2e322;
      }

      .cls-3 {
        clip-path: url(#clippath);
      }

      .cls-4 {
        fill: none;
        stroke: #ff5e00;
        stroke-miterlimit: 10;
        stroke-width: 2.83px;
      }

      .cls-5 {
        fill: #ff5e00;
      }
    </style>
    <clipPath id="clippath">
      <path class="cls-5" d="M60.38,45.57c1.22-2.94,3-5.51,5.6-7.4,4.46-3.25,10.55-4.11,16.32-4.77,12.35-1.43,24.73-2.56,37.14-3.39,9.36-.63,22.6-2.8,30.31,3.98,4.04,3.55,6.47,8.61,8.08,13.74,2.72,8.68,2.57,17.73,3.26,26.62,.63,8.08,.24,18.27-5.74,24.43-8.12,8.36-25.7,5.42-35.89,4.36-6.51-.68-13.21-2.39-19.64-2.85-9.63-.69-18.47,1.86-28.05-1.34-4.25-1.42-8.32-3.78-10.99-7.37-4.03-5.43-4.29-12.75-3.67-19.48,.7-7.6-.08-18.45,3.27-26.5Z"/>
    </clipPath>
  </defs>
  <g id="Layer_1-2" data-name="Layer 1">
    <g>
      <path class="cls-5" d="M6.75,44.51c1.18,3.11,5.29,3.62,8.61,3.62,9.01,0,18.02,.02,27.03,.03,2.29,0,4.67-.01,6.76-.97,4.26-1.96,3.81-5.67-.8-5.33-4.67,.35-9.44,1.97-14.14,2.53-4.62,.55-9.27,.83-13.93,.84-1.47,0-13.09,.44-13.53-.72Z"/>
      <path class="cls-5" d="M0,72.29c1.18-3.11,5.29-3.62,8.61-3.62,9.01,0,18.02-.02,27.03-.03,2.29,0,4.67,.01,6.76,.97,4.26,1.96,3.81,5.67-.8,5.33-4.67-.35-9.44-1.97-14.14-2.53-4.62-.55-9.27-.83-13.93-.84-1.47,0-13.09-.44-13.53,.72Z"/>
      <path class="cls-5" d="M22.54,57.29c-.87,0-1.97,.17-2.17,1.02-.13,.56,.26,1.13,.77,1.39s1.1,.28,1.67,.3c5.88,.17,11.75,1.08,17.61,.36,1.34-.16,3.01-.76,3.03-2.1,.01-.83-.7-1.53-1.5-1.77-.79-.25-1.64-.15-2.47-.04-5.62,.71-11.26,.86-16.95,.85Z"/>
      <g>
        <path class="cls-5" d="M60.38,45.57c1.22-2.94,3-5.51,5.6-7.4,4.46-3.25,10.55-4.11,16.32-4.77,12.35-1.43,24.73-2.56,37.14-3.39,9.36-.63,22.6-2.8,30.31,3.98,4.04,3.55,6.47,8.61,8.08,13.74,2.72,8.68,2.57,17.73,3.26,26.62,.63,8.08,.24,18.27-5.74,24.43-8.12,8.36-25.7,5.42-35.89,4.36-6.51-.68-13.21-2.39-19.64-2.85-9.63-.69-18.47,1.86-28.05-1.34-4.25-1.42-8.32-3.78-10.99-7.37-4.03-5.43-4.29-12.75-3.67-19.48,.7-7.6-.08-18.45,3.27-26.5Z"/>
        <g class="cls-3">
          <circle class="cls-2" cx="107.49" cy="64.07" r="21.36"/>
          <path class="cls-1" d="M63.93,51.88c0,2.96-2.45,7.97,.26,10.29,.81-1.45,.81-3.2,1-4.85,.39-3.38,1.56-6.68,3.38-9.55,.51-.8,1.09-1.64,1.1-2.59,.05-3.92-3.19,.12-3.78,1.17-.87,1.55-1.96,3.69-1.96,5.53Z"/>
          <path class="cls-1" d="M155.01,85.47c-.24,1.98-.61,4-1.67,5.68s-2.98,2.96-4.96,2.75c-.01-.37-.03-.75-.04-1.12,2.27-.82,3.84-3,4.55-5.31,.71-2.31,.69-4.77,.66-7.19-.04-3.58-.08-7.15-.12-10.73-.03-2.48-.83-6.45,.5-8.52,1.64,7.69,2.2,16.64,1.1,24.44Z"/>
        </g>
      </g>
      <g>
        <path class="cls-1" d="M120,62.29c.24,.19,.44,.43,.59,.75,.41,.88,.13,2.02-.64,2.62-.72,.56-1.52,.47-2.36,.59s-1.62,.25-2.44,.32c-1.17,.11-2.33,.22-3.5,.33-2.87,.27-5.74,.53-8.6,.8l-3.86,.36c-1.39,.13-3,.5-4.31-.09-.78-.35-1.43-1.14-1.37-2,.05-.84,.75-1.53,1.53-1.84,1.12-.44,2.59-.44,3.8-.55,1.06-.1,2.11-.2,3.17-.29l7.13-.66c2.19-.2,4.38-.41,6.57-.61,1.28-.12,3.19-.58,4.3,.29Z"/>
        <path class="cls-1" d="M104.38,52.2c.19-.24,.43-.44,.75-.59,.88-.41,2.02-.13,2.62,.64,.56,.72,.47,1.52,.59,2.36s.25,1.62,.32,2.44c.11,1.17,.22,2.33,.33,3.5,.27,2.87,.53,5.74,.8,8.6,.12,1.29,.24,2.57,.36,3.86,.13,1.39,.5,3-.09,4.31-.35,.78-1.14,1.43-2,1.37-.84-.05-1.53-.75-1.84-1.53-.44-1.12-.44-2.59-.55-3.8-.1-1.06-.2-2.11-.29-3.17-.22-2.38-.44-4.75-.66-7.13-.2-2.19-.41-4.38-.61-6.57-.12-1.28-.58-3.19,.29-4.3Z"/>
      </g>
      <path class="cls-2" d="M138.3,21.21c.15,0,.28,0,.4-.03,.62-.17,.68-.79,.97-1.33,.81-1.5,1.54-3.04,2.08-4.66,.97-2.93,1.25-6.18-.35-8.95-2.66-4.6-8.94-5.64-14.38-5.94-15.1-.83-30.3,.11-45.16,2.8-3.6,.65-7.43,1.54-9.9,4.15-2.48,2.62-2.89,6.25-2.43,9.64,.24,1.8,.71,3.57,1.27,5.29,.26,.79,.45,1.85,.86,2.56,.26,.46,.06,.41,.71,.46,.44,.03,.97-.13,1.38-.27,.77-.26,1.28-.38,1.18-1.13-.17-1.36-.9-2.75-1.17-4.11-.53-2.65-.52-5.52,.99-7.89,2.73-4.29,8.79-4.94,13.99-5.15,10.5-.4,20.99-.81,31.49-1.21,3.48-.13,7.04-.26,10.38,.73,2.74,.81,5.26,2.4,6.43,5.01,.83,1.86,.64,3.86,.07,5.76-.19,.63-.35,1.28-.61,1.88-.16,.37-.78,.92-.58,1.32,.11,.22,.33,.35,.55,.47,.43,.22,1.21,.56,1.83,.6Z"/>
      <path class="cls-4" d="M69.56,34.51c-.07-.11-.13-.22-.19-.34-.83-1.58-1.71-4.61-.83-6.34,.79-1.56,3.61-2.19,5.13-2.51,1.49-.32,3.21-.75,4.74-.45,1.2,.24,2.07,1.38,2.56,2.46,.5,1.1,.71,2.3,.91,3.49,.16,.95,.3,2-.22,2.8-.58,.9-1.75,1.16-2.81,1.33-1.98,.33-3.97,.63-5.96,.9-.69,.09-1.42,.18-2.05-.1-.56-.24-.96-.72-1.28-1.24Z"/>
      <path class="cls-4" d="M141.66,30.15c.07-.11,.13-.22,.19-.34,.83-1.58,1.71-4.61,.83-6.34-.79-1.56-3.61-2.19-5.13-2.51-1.49-.32-3.21-.75-4.74-.45-1.2,.24-2.07,1.38-2.56,2.46-.5,1.1-.71,2.3-.91,3.49-.16,.95-.3,2,.22,2.8,.58,.9,1.75,1.16,2.81,1.33,1.98,.33,3.97,.63,5.96,.9,.69,.09,1.42,.18,2.05-.1,.56-.24,.96-.72,1.28-1.24Z"/>
    </g>
  </g>
</svg>