<?xml version="1.0" encoding="UTF-8"?>
<svg id="Layer_2" data-name="Layer 2" xmlns="http://www.w3.org/2000/svg" xmlns:xlink="http://www.w3.org/1999/xlink" viewBox="0 0 124.75 107.98">
  <defs>
    <style>
      .cls-1 {
        fill: #fff;
      }

      .cls-2 {
        clip-path: url(#clippath-2);
      }

      .cls-3 {
        clip-path: url(#clippath-1);
      }

      .cls-4 {
        fill: #00989d;
      }

      .cls-5 {
        clip-path: url(#clippath);
      }

      .cls-6 {
        clip-path: url(#clippath-3);
      }

      .cls-7 {
        fill: #006868;
      }

      .cls-8 {
        fill: #fbfaf7;
      }
    </style>
    <clipPath id="clippath">
      <path class="cls-4" d="M110.67,71.97c-4.94,7.86-15.2,10.96-23.8,7.2-7.62-3.33-12.07-12.13-10.05-19.87-5.3,.64-9.69-1.1-13.22-5.09-5.73,12.76,5.04,37.5,24.51,37.51,1.85-.97,3.38-.76,4.43,1.21,.05,.09,1.33-.04,1.49-.05,.52-.02,1.05-.03,1.57-.05,.83-.03,1.6,.11,2.43,.04,1.47-.12,2.92-.36,4.35-.71,.62-.15,1.22-.35,1.85-.47s1.27-.22,1.86-.46c8.72-3.8,16.31-8.75,18.66-18.87-4.69-.14-9.39-.27-14.08-.41Z"/>
    </clipPath>
    <clipPath id="clippath-1">
      <path class="cls-4" d="M108.4,46.51c3.16-5.31,1.65-8.99-3.35-12.46-8.81-6.11-17.26-12.73-26.7-17.9-3.87,6.44-8.55,12.23-14.08,17.33,.74,1.19,1.31,2.57,3.02,2.66,5.5-1.82,10.95-2.78,15.66,1.79,4.77,4.63,4.75,10.16,2.64,15.99,5.92,6.98,8.95,7.34,14.9,1.75l-.26,.25c.43-.42,.85-1.05,1.28-1.46l-.09,.13c2.32-2.77,3.35-6.65,7.05-8.24l-.07,.16Z"/>
    </clipPath>
    <clipPath id="clippath-2">
      <path class="cls-4" d="M88.15,98.42c-3.48,.09-6.98,0-10.43,.34-3.16,.3-5.55,1.96-5.38,5.51,.17,3.43,2.91,3.7,5.51,3.7,10.64,.02,21.28-.03,31.92-.05,2.92,0,5.64-.43,5.51-4.25-.11-3.29-2.18-4.79-5.29-4.94-2.9-.14-8.7-.19-8.7-.19l-3.93-.02s-3.65,.01-5.48,.02c-1.25-.04-2.49-.08-3.74-.12Z"/>
    </clipPath>
    <clipPath id="clippath-3">
      <path class="cls-4" d="M65.43,9.09c.09,.69,.03,1.4-.3,2.02-.15,.28-.35,.51-.57,.73-.29,.28-.6,.29-.98,.34-.28,.04-.57,.1-.78,.29-.16,.15-.25,.35-.32,.55-.08,.21-.15,.27-.31,.44-.87,.87-1.54,1.92-2.31,2.87-.38,.48-.79,.94-1.25,1.34-.23,.2-.48,.39-.74,.56-.07,.05-.82,.41-.81,.43,.27,2.39-.64,3.69-3.21,3.44-1.19,8.24-.46,9.18,8.02,10.23,2.05-8.21,7.94-13.54,14.02-18.73-.94-7.18-3.71-8.38-10.45-4.5Z"/>
    </clipPath>
  </defs>
  <g id="Layer_1-2" data-name="Layer 1">
    <g>
      <g>
        <path class="cls-4" d="M110.67,71.97c-4.94,7.86-15.2,10.96-23.8,7.2-7.62-3.33-12.07-12.13-10.05-19.87-5.3,.64-9.69-1.1-13.22-5.09-5.73,12.76,5.04,37.5,24.51,37.51,1.85-.97,3.38-.76,4.43,1.21,.05,.09,1.33-.04,1.49-.05,.52-.02,1.05-.03,1.57-.05,.83-.03,1.6,.11,2.43,.04,1.47-.12,2.92-.36,4.35-.71,.62-.15,1.22-.35,1.85-.47s1.27-.22,1.86-.46c8.72-3.8,16.31-8.75,18.66-18.87-4.69-.14-9.39-.27-14.08-.41Z"/>
        <g class="cls-5">
          <path class="cls-1" d="M71.94,81.78c2.8,3.75,7.13,5.75,11.63,6.7,.79,.17,1.62-.23,1.85-1.05,.2-.74-.25-1.68-1.05-1.85-1.97-.41-3.86-.99-5.54-1.86-.42-.22-.83-.45-1.23-.71-.21-.13-.42-.27-.62-.41-.11-.08-.23-.16-.34-.24-.22-.16,.12,.1-.09-.07-.73-.58-1.55-1.4-2.01-2.02s-1.3-.98-2.05-.54c-.64,.37-1.03,1.4-.54,2.05h0Z"/>
        </g>
      </g>
      <g>
        <path class="cls-4" d="M108.4,46.51c3.16-5.31,1.65-8.99-3.35-12.46-8.81-6.11-17.26-12.73-26.7-17.9-3.87,6.44-8.55,12.23-14.08,17.33,.74,1.19,1.31,2.57,3.02,2.66,5.5-1.82,10.95-2.78,15.66,1.79,4.77,4.63,4.75,10.16,2.64,15.99,5.92,6.98,8.95,7.34,14.9,1.75l-.26,.25c.43-.42,.85-1.05,1.28-1.46l-.09,.13c2.32-2.77,3.35-6.65,7.05-8.24l-.07,.16Z"/>
        <g class="cls-3">
          <path class="cls-1" d="M106.61,42.76c-.18-4.45-3.4-8.52-7.73-9.64-1.33-.34-1.89,1.71-.57,2.05,3.41,.88,6.03,4.12,6.17,7.59,.02,.57,.47,1.06,1.06,1.06,.56,0,1.09-.49,1.06-1.06h0Z"/>
        </g>
      </g>
      <g>
        <path class="cls-4" d="M88.15,98.42c-3.48,.09-6.98,0-10.43,.34-3.16,.3-5.55,1.96-5.38,5.51,.17,3.43,2.91,3.7,5.51,3.7,10.64,.02,21.28-.03,31.92-.05,2.92,0,5.64-.43,5.51-4.25-.11-3.29-2.18-4.79-5.29-4.94-2.9-.14-8.7-.19-8.7-.19l-3.93-.02s-3.65,.01-5.48,.02c-1.25-.04-2.49-.08-3.74-.12Z"/>
        <g class="cls-2">
          <path class="cls-1" d="M74.85,102.43c-.14,1.17,.56,2.28,1.46,2.97s2.07,.96,3.19,1.14c.36,.06,.78-.09,.87-.49,.08-.34-.1-.81-.49-.87-.49-.08-.98-.17-1.46-.31-.11-.03-.23-.07-.34-.11-.07-.02-.13-.05-.2-.08,.09,.04-.02-.01-.06-.03-.22-.1-.44-.22-.64-.36-.01,0-.15-.11-.08-.06s-.06-.06-.08-.07c-.08-.07-.16-.15-.23-.22-.04-.05-.09-.1-.13-.15-.08-.1,.01,.03-.03-.03-.05-.09-.12-.18-.17-.27-.03-.05-.05-.09-.07-.14-.09-.18,.04,.12-.03-.06-.03-.1-.07-.2-.09-.3,0-.02-.03-.22-.02-.06,0-.04,0-.08-.01-.12,0-.13,0-.25,.02-.38,.04-.37-.36-.72-.71-.71-.42,.02-.66,.31-.71,.71h0Z"/>
        </g>
      </g>
      <path class="cls-7" d="M85.59,53.93c2.11-5.83,2.13-11.36-2.64-15.99-4.71-4.57-10.16-3.61-15.66-1.79-5.62,5.13-6.62,11.2-3.68,18.07,3.53,3.98,7.92,5.73,13.22,5.09,3.63-.63,6.25-2.92,8.76-5.38Zm-10.99,.54c-4.29,.12-7.8-3.18-7.88-7.39-.08-4.25,3.23-7.65,7.53-7.74,4.35-.08,7.71,3.09,7.87,7.43,.16,4.29-3.05,7.57-7.51,7.7Z"/>
      <g>
        <path class="cls-4" d="M65.43,9.09c.09,.69,.03,1.4-.3,2.02-.15,.28-.35,.51-.57,.73-.29,.28-.6,.29-.98,.34-.28,.04-.57,.1-.78,.29-.16,.15-.25,.35-.32,.55-.08,.21-.15,.27-.31,.44-.87,.87-1.54,1.92-2.31,2.87-.38,.48-.79,.94-1.25,1.34-.23,.2-.48,.39-.74,.56-.07,.05-.82,.41-.81,.43,.27,2.39-.64,3.69-3.21,3.44-1.19,8.24-.46,9.18,8.02,10.23,2.05-8.21,7.94-13.54,14.02-18.73-.94-7.18-3.71-8.38-10.45-4.5Z"/>
        <g class="cls-6">
          <path class="cls-1" d="M56.5,24.55c.12,2.04,1.55,3.89,3.54,4.42,.54,.14,1.18-.18,1.31-.74s-.17-1.15-.74-1.31c-.16-.04-.31-.09-.46-.16l.25,.11c-.3-.13-.58-.29-.83-.49l.22,.17c-.26-.2-.48-.43-.68-.69l.17,.22c-.21-.27-.38-.57-.51-.88l.11,.25c-.12-.29-.2-.58-.24-.89l.04,.28c-.01-.1-.02-.19-.03-.29-.03-.55-.47-1.09-1.06-1.06-.55,.02-1.1,.47-1.06,1.06h0Z"/>
        </g>
      </g>
      <path class="cls-4" d="M59.67,5.65c0-.59-.06-1.18-.1-1.75-.08-1.03-.31-2.1-1.11-2.83-.38-.34-.84-.58-1.32-.73-2.64-.86-4.99-.04-6.77,2.05-1.75,2.05-3.34,4.24-5.04,6.34-1.83,2.26-2.74,4.86-1.56,7.54,1.32,3.01,4.28,1.85,6.69,1.97-.02-1.67,.86-2.74,2.29-3.45,.15-.07,.3-.3,.41-.41,.16-.16,.33-.33,.49-.49,.31-.31,.63-.63,.94-.94,.63-.63,1.25-1.25,1.88-1.88,.55-.55,1.09-1.09,1.61-1.65,.21-.22,.48-.36,.69-.58,.27-.27,.45-.62,.58-.97,.02-.04,.03-.09,.05-.13,.23-.67,.29-1.38,.28-2.09Z"/>
      <path class="cls-7" d="M75.88,13.58c-6.08,5.19-11.97,10.52-14.02,18.73,.8,.39,1.6,.79,2.4,1.18,5.53-5.1,10.21-10.89,14.08-17.33-.18-1.47-1.02-2.32-2.47-2.57Z"/>
      <path class="cls-7" d="M100.51,55.69c-.02,.06-.04,.11-.04,.18-.01,.14-.03,.28-.06,.42-.07,.47-.24,1.09,0,1.54,.01,.02,.02,.04,.03,.06,1.51,2.31,3.74,1.45,5.56,.68,3.85-1.62,5.76-4.76,5.88-8.93,.07-2.37-1.01-3.55-3.49-3.12,0,0,.07-.16,.07-.16-1.56,3.42-.84,8.21-6.66,7.99-.09,.03-.19,.06-.27,.1-.15,.08-.29,.22-.41,.34-.21,.2-.38,.44-.52,.7-.04,.07-.07,.13-.09,.2Z"/>
      <path class="cls-7" d="M52.75,14.79c-1.43,.71-2.3,1.78-2.29,3.45,.99,1.4,1.63,3.1,3.38,3.83,2.57,.26,3.48-1.04,3.21-3.43-1.43-1.28-2.87-2.56-4.3-3.85Z"/>
      <path class="cls-7" d="M57.98,9.35c.31-1.57,1.12-2.69,2.73-3.11,1.61,.59,3.42,.77,4.58,2.26,.92,2.42-.1,3.63-2.48,4-1.61-1.05-3.22-2.1-4.84-3.15Z"/>
      <path class="cls-7" d="M88.15,98.42c1.25,.04,2.49,.08,3.74,.12,.22-1.87,.43-3.73,.65-5.6-1.04-1.98-2.57-2.18-4.43-1.21-.63,2.24-.96,4.47,.04,6.7Z"/>
      <path class="cls-7" d="M101.36,98.42c-1.25,.04-2.49,.08-3.74,.12-.22-1.87-.43-3.73-.65-5.6,1.04-1.98,2.57-2.18,4.43-1.21,.63,2.24,.96,4.47-.04,6.7Z"/>
      <path class="cls-8" d="M74.59,54.47c4.47-.12,7.67-3.41,7.51-7.7-.16-4.34-3.52-7.51-7.87-7.43-4.3,.08-7.61,3.49-7.53,7.74,.08,4.22,3.6,7.51,7.88,7.39Zm-1.65-4.68c-.75-.07-1.83-1.27-1.7-3.29,.14-2.13,1.62-2.96,3.58-2.82,1.85,.13,2.79,1.61,2.78,3.14-.01,1.86-1.12,3.24-4.65,2.97Z"/>
      <path class="cls-7" d="M72.95,49.79c3.53,.27,4.64-1.11,4.65-2.97,0-1.53-.93-3.01-2.78-3.14-1.96-.14-3.44,.69-3.58,2.82-.13,2.02,.95,3.22,1.7,3.29Z"/>
    </g>
    <g>
      <path class="cls-4" d="M6.4,37.08c1.12,2.95,5.01,3.43,8.16,3.43,8.54,0,17.08,.02,25.62,.03,2.17,0,4.43-.01,6.41-.92,4.04-1.86,3.61-5.38-.76-5.05-4.43,.33-8.94,1.87-13.4,2.4-4.38,.52-8.79,.78-13.2,.8-1.4,0-12.41,.42-12.83-.68Z"/>
      <path class="cls-4" d="M0,63.41c1.12-2.95,5.01-3.43,8.16-3.43,8.54,0,17.08-.02,25.62-.03,2.17,0,4.43,.01,6.41,.92,4.04,1.86,3.61,5.38-.76,5.05-4.43-.33-8.94-1.87-13.4-2.4-4.38-.52-8.79-.78-13.2-.8-1.4,0-12.41-.42-12.83,.68Z"/>
      <path class="cls-4" d="M21.37,49.19c-.82,0-1.87,.17-2.05,.96-.12,.53,.25,1.07,.73,1.32s1.04,.27,1.58,.28c5.58,.16,11.14,1.02,16.69,.34,1.27-.16,2.85-.72,2.87-1.99,.01-.79-.67-1.45-1.42-1.68-.75-.23-1.56-.14-2.34-.04-5.33,.67-10.68,.82-16.07,.81Z"/>
    </g>
  </g>
</svg>