<?xml version="1.0" encoding="UTF-8"?>
<svg id="Layer_2" data-name="Layer 2" xmlns="http://www.w3.org/2000/svg" viewBox="0 0 118.59 89">
  <defs>
    <style>
      .cls-1 {
        fill: #00989d;
      }

      .cls-2 {
        fill: #006868;
      }
    </style>
  </defs>
  <g id="Layer_1-2" data-name="Layer 1">
    <g>
      <path class="cls-2" d="M77.34,54.34c-.29-.5-.81-.87-1.31-1.2-1.4-.94-2.81-1.88-4.21-2.81-1.78-1.19-3.76-2.43-5.89-2.22-3.39,.34-4.89,3.86-7.15,5.85-3.18,2.8-6,6.1-9.06,9.04-2.1,2.02-4.95,4.48-5.59,7.44-.43,2,.01,4.16,1.18,5.83,.62,.88,1.44,1.63,2.43,2.04,2.29,.95,5.68-.64,7.73-1.73,2.53-1.34,4.74-3.21,6.84-5.13,2.49-2.28,4.94-4.61,7.49-6.84,2.48-2.17,4.5-4.58,6.61-7.12,.67-.8,1.38-1.79,1.08-2.79-.04-.13-.09-.25-.16-.37Z"/>
      <path class="cls-1" d="M115.41,11.3c-2.76-4.79-6.92-8.43-12.25-10.04-5.97-1.79-13.95-1.96-19.43,1.36-2.7,1.63-4.61,4.2-6.57,6.6-1.86,2.27-3.96,4.38-6.04,6.43-2.94,2.91-6.18,5.4-9.32,8.1-6.3,5.41-12.22,11.26-17.73,17.48-2.92,3.3-5.71,6.72-8.39,10.21-1.07,1.39-2.33,2.43-3.26,3.96-.87,1.43-1.56,2.97-2.06,4.57-2.01,6.44-.76,13.6,3.01,19.15,.79,1.16,1.68,2.25,2.66,3.25,3.66,3.74,8.58,6.11,13.8,6.55,3.37,.28,6.79-.23,9.94-1.47,3.66-1.44,6.54-4.06,9.54-6.54,3.05-2.54,6.04-5.18,8.99-7.86,3.45-3.13,6.86-6.29,10.29-9.36,1.46-1.3,2.91-2.6,4.4-3.86,.49-.53,.98-1.06,1.47-1.58,6.47-6.91,12.89-13.86,18.77-21.28,.23-.6,.65-1.3,1.24-2.17,5.11-7.49,5.51-15.56,.93-23.51Zm-8.84,21.91c-4.7,4.93-9.62,9.64-14.43,14.45-.94,.94-1.87,1.88-2.8,2.83-.86,.87-1.76,1.64-2.65,2.48-1.21,1.12-2.32,2.34-3.39,3.59-.48,.56-.93,1.3-1.53,1.74-.52,.39-1.05,.72-1.56,1.14-2.58,2.16-5.23,4.22-7.82,6.38-3.98,3.32-7.48,7.2-11.57,10.37-3.7,2.87-8.35,5.29-13.19,4.9-2.35-.19-4.94-1.43-6.48-3.25-.62-.74-.94-1.56-1.13-2.42-4.69-7.95-4.33-13.9,1.43-19.73,14.51-14.69,29.13-29.26,43.85-43.73,6.45-6.33,15.19-6.35,21.16-.5,6.19,6.06,6.37,15.17,.1,21.75Z"/>
      <path class="cls-1" d="M82.07,51.71c.67,.39,1.39,.75,2.16,.73,.89-.02,1.73-.54,2.39-1.11,.22-.19,1.96-1.61,1.93-1.75-.38-1.67-1.96-2.75-3.42-3.66-6.27-3.94-12.58-7.94-17.9-13.09-1.09-1.05-2.22-2.2-3.7-2.53-1.9-.42-3.35,1.16-3.94,2.8-.66,1.84,1.07,3.07,2.24,4.2,2.84,2.75,5.9,5.27,9.14,7.53,1.79,1.25,3.63,2.42,5.51,3.5,1.8,1.04,3.52,2.14,5.31,3.21,.09,.05,.18,.11,.28,.16Z"/>
    </g>
    <g>
      <path class="cls-1" d="M6.4,5.53c1.12,2.95,5.01,3.43,8.16,3.43,8.54,0,17.08,.02,25.62,.03,2.17,0,4.43-.01,6.41-.92,4.04-1.86,3.61-5.38-.76-5.05-4.43,.33-8.94,1.87-13.4,2.4-4.38,.52-8.79,.78-13.2,.8-1.4,0-12.41,.42-12.83-.68Z"/>
      <path class="cls-1" d="M0,31.87c1.12-2.95,5.01-3.43,8.16-3.43,8.54,0,17.08-.02,25.62-.03,2.17,0,4.43,.01,6.41,.92,4.04,1.86,3.61,5.38-.76,5.05-4.43-.33-8.94-1.87-13.4-2.4-4.38-.52-8.79-.78-13.2-.8-1.4,0-12.41-.42-12.83,.68Z"/>
      <path class="cls-1" d="M21.37,17.65c-.82,0-1.87,.17-2.05,.96-.12,.53,.25,1.07,.73,1.32s1.04,.27,1.58,.28c5.58,.16,11.14,1.02,16.69,.34,1.27-.16,2.85-.72,2.87-1.99,.01-.79-.67-1.45-1.42-1.68-.75-.23-1.56-.14-2.34-.04-5.33,.67-10.68,.82-16.07,.81Z"/>
    </g>
  </g>
</svg>