<?xml version="1.0" encoding="UTF-8"?>
<svg id="Layer_2" data-name="Layer 2" xmlns="http://www.w3.org/2000/svg" viewBox="0 0 36.9 37.95">
  <defs>
    <style>
      .cls-1 {
        stroke: #ffb203;
      }

      .cls-1, .cls-2 {
        fill: none;
        stroke-miterlimit: 10;
        stroke-width: 2.83px;
      }

      .cls-2 {
        stroke: #006868;
      }
    </style>
  </defs>
  <g id="Layer_1-2" data-name="Layer 1">
    <g>
      <path class="cls-1" d="M23.66,33.15c.2,1.31-1.8,2.31-2.15,2.51-1.24,.75-2.42,.85-2.83,.87-2.44,.11-4.37-1.06-5.38-3.38-.12-.28,.36-1.11,.36-1.11l9.47-.02s.48,.8,.53,1.13Z"/>
      <path class="cls-2" d="M18.43,31.76c-4.08,0-8.17,.09-12.25-.02-4.59-.12-5.89-2.04-3.79-6.01,1.56-2.95,1.94-5.92,1.96-9.15,.06-8.64,5.7-14.82,13.63-15.15,7.47-.31,13.53,5.1,14.56,13.27,.54,4.3,.45,8.57,2.53,12.72,1.44,2.87-1.08,4.29-3.92,4.33-4.24,.05-8.47,.01-12.71,.02Z"/>
    </g>
  </g>
</svg>