<?xml version="1.0" encoding="UTF-8"?>
<svg id="Layer_2" data-name="Layer 2" xmlns="http://www.w3.org/2000/svg" xmlns:xlink="http://www.w3.org/1999/xlink" viewBox="0 0 83.25 87.94">
  <defs>
    <style>
      .cls-1 {
        fill: #fff;
      }

      .cls-2 {
        fill: #00989d;
      }

      .cls-3 {
        clip-path: url(#clippath);
      }

      .cls-4 {
        fill: #006868;
      }
    </style>
    <clipPath id="clippath">
      <path class="cls-2" d="M83.12,38.55c-1.15-17.59-15.61-28.14-32.13-23.02-1.03,.32-1.93,.59-2.74,.75-.03,.02-.04,.04-.07,.06-5.31,2.83-11.45,1.06-16.59-1.27C16.43,11.31,2.81,19.82,.62,35.4c-2.04,14.48,.85,28.34,10,40.04,7.19,9.19,15.79,16.2,28.73,10.35,.85-.4,2.13-.87,2.81-.53,2.85,1.48,5.97,2.48,9.2,2.53,5.6,.09,9.58-2.77,14.25-5.33,2.74-1.51,4.84-3.61,6.65-6.04,1.2-1.61,2.27-3.36,3.31-5.17,5.7-9.87,8.3-21.35,7.55-32.71Z"/>
    </clipPath>
  </defs>
  <g id="Layer_1-2" data-name="Layer 1">
    <g>
      <path class="cls-4" d="M43.01,15.01c.21-.63,.15-1.47,.03-2.13-.59-3.47-2.06-6.73-3.52-9.94-.46-1.02-.98-2.1-1.95-2.66-1.71-.99-3.22,.87-4.06,2.16s-1.07,2.83-.63,4.36,1.34,2.83,2.14,4.15c.41,.68,.83,1.35,1.17,2.07,.1,.21,.62,1.95,.72,1.98,1.47,.44,3.27,.94,4.81,.94,.72,0,1.1-.38,1.28-.91Z"/>
      <g>
        <path class="cls-2" d="M83.12,38.55c-1.15-17.59-15.61-28.14-32.13-23.02-1.03,.32-1.93,.59-2.74,.75-.03,.02-.04,.04-.07,.06-5.31,2.83-11.45,1.06-16.59-1.27C16.43,11.31,2.81,19.82,.62,35.4c-2.04,14.48,.85,28.34,10,40.04,7.19,9.19,15.79,16.2,28.73,10.35,.85-.4,2.13-.87,2.81-.53,2.85,1.48,5.97,2.48,9.2,2.53,5.6,.09,9.58-2.77,14.25-5.33,2.74-1.51,4.84-3.61,6.65-6.04,1.2-1.61,2.27-3.36,3.31-5.17,5.7-9.87,8.3-21.35,7.55-32.71Z"/>
        <g class="cls-3">
          <path class="cls-1" d="M24.28,20.53c-9.19,.59-17.06,7.18-19.03,16.23-.41,1.88,2.48,2.69,2.89,.8,1.67-7.7,8.22-13.52,16.13-14.03,1.92-.12,1.93-3.12,0-3h0Z"/>
          <path class="cls-1" d="M71.59,61.3c-.45,2.03-1.96,3.75-3.18,5.37-1.33,1.76-2.77,3.46-4.39,4.97-3.09,2.89-7,5.03-11.32,4.97-1.93-.02-1.93,2.98,0,3,4.99,.06,9.57-2.31,13.18-5.61,1.83-1.67,3.41-3.57,4.9-5.54s3.16-3.95,3.7-6.37c.42-1.88-2.47-2.68-2.89-.8h0Z"/>
          <path class="cls-1" d="M74.48,35.69c.13,.43,.24,.87,.32,1.31,.02,.1,.04,.21,.05,.31,.01,.07,.02,.14,.03,.21-.03-.21-.03-.26-.02-.14,.02,.22,.05,.45,.06,.67,.03,.45,.03,.9,.01,1.35,0,.21-.03,.42-.05,.62,0,.08,0,.23-.03,.31,.03-.23,.03-.26,.01-.09-.01,.07-.02,.14-.03,.21-.07,.41-.07,.78,.15,1.16,.18,.31,.54,.61,.9,.69,.72,.16,1.71-.22,1.85-1.05,.35-2.13,.27-4.29-.35-6.36-.22-.75-1.06-1.3-1.85-1.05s-1.29,1.04-1.05,1.85h0Z"/>
        </g>
      </g>
    </g>
  </g>
</svg>