<?xml version="1.0" encoding="UTF-8"?>
<svg id="Layer_2" data-name="Layer 2" xmlns="http://www.w3.org/2000/svg" xmlns:xlink="http://www.w3.org/1999/xlink" viewBox="0 0 103.49 111.28">
  <defs>
    <style>
      .cls-1 {
        fill: #fff;
      }

      .cls-2 {
        clip-path: url(#clippath-1);
      }

      .cls-3 {
        fill: #00989d;
      }

      .cls-4 {
        clip-path: url(#clippath);
      }

      .cls-5 {
        fill: #006868;
      }
    </style>
    <clipPath id="clippath">
      <path class="cls-3" d="M95.2,27.83c-5.39,.99-9.37,4.01-12.03,8.75-.13,.25-.28,.5-.42,.75l-.09,.16c-3.66,6.57-7.19,13.24-10.83,19.98-2.71-1.48-3.05-3.28-1.49-5.64,.55-.84,.96-1.77,1.42-2.66,2.37-4.53,1.23-6.98-3.68-8.15-2-.48-2.85,.74-3.63,2.18-1.84,3.38-3.66,6.77-5.52,10.2-2.53-1.71-2.65-3.36-1.34-5.67,3.37-5.92,6.57-11.94,9.75-17.97l.1-.18c.04-.08,.09-.16,.12-.25,2.7-5.23,3.5-10.55,.99-16.17-2.18-4.9-.65-9.47,3.59-11.79,4.88-2.68,10.73-1.36,13.08,3.67,1.78,3.8,3.71,4.95,7.97,4.31,5.43-.8,9.84,3.57,10.25,8.95,.38,5.09-2.49,8.47-8.26,9.53Z"/>
    </clipPath>
    <clipPath id="clippath-1">
      <path class="cls-3" d="M66.97,60.04s-.07,0-.11,0c.24-.05,.49,.02,.7,.15s.37,.31,.53,.5c.42,.52,.76,1.1,1,1.73-.35,.7-.69,1.41-1.06,2.09s-.8,1.39-1.2,2.08c-1.23,2.18-2.42,4.38-3.57,6.6-.33,.61-.64,1.21-.95,1.83-2.13,4.21-5.09,8.04-5.95,12.82-.62,3.45-.38,6.75,.98,10.04,2.34,5.67,.86,9.96-3.92,12.35-4.81,2.41-10.96,.58-13.15-4.68-1.48-3.54-3.25-4.11-6.74-3.56-5.75,.93-10.31-2.93-10.95-8.63-.56-4.94,2.43-8.88,7.98-9.81,6.01-1,10.02-4.49,12.88-9.6,1.64-2.94,3.24-5.89,4.84-8.86,1.74-3.22,3.47-6.45,5.22-9.69,3.7,1.98,2.07,4.31,.86,6.54-1.84,3.42-2.28,4.74-.8,6.02,.62,.54,1.6,1.08,2.95,1.76,.44,.23,.85,.4,1.23,.51,1.73,.49,2.91-.19,3.85-2.23,.91-1.95,1.94-3.85,3.1-5.67,.6-.95,.78-3.07,2.42-2.26,1.58,.79,2.08,2.45,.95,4.39"/>
    </clipPath>
  </defs>
  <g id="Layer_1-2" data-name="Layer 1">
    <g>
      <g>
        <path class="cls-3" d="M57.65,62.24c.61-.79,1.38-.83,1.96-.58,.99,.8,1.26,1.59,.73,2.42-.65,1.01-1.64,1.16-2.51,.43-.71-.58-.78-1.48-.17-2.28Z"/>
        <path class="cls-3" d="M68.09,49.77c-.64,.91-1.59,1.22-2.48,.42-.69-.61-.79-1.5-.2-2.26,.59-.76,1.4-.79,2.09-.49,.77,.75,1.18,1.51,.6,2.33Z"/>
        <path class="cls-3" d="M64.29,56.9c-.62,1.24-1.65,1.01-2.49,.46-.78-.52-.9-1.39-.28-2.21,.6-.79,1.36-.95,2.2-.52,.76,.63,1,1.41,.57,2.28Z"/>
        <path class="cls-3" d="M57.61,47.73c3.37-5.92,6.57-11.94,9.75-17.97l11.3,5.57,4.1,2.02-.09,.16c-3.66,6.57-7.19,13.24-10.83,19.98-2.71-1.48-3.05-3.28-1.49-5.64,.55-.84,.96-1.77,1.42-2.66,2.37-4.53,1.23-6.98-3.68-8.15-2-.48-2.85,.74-3.63,2.18-1.84,3.38-3.66,6.77-5.52,10.2-2.53-1.71-2.65-3.36-1.34-5.67Z"/>
        <path class="cls-3" d="M53.41,110.23c-4.81,2.41-10.96,.58-13.15-4.68-1.48-3.54-3.25-4.11-6.74-3.56-5.75,.93-10.31-2.93-10.95-8.63-.56-4.94,2.43-8.88,7.98-9.81,6.01-1,10.02-4.49,12.88-9.6,1.64-2.94,3.24-5.89,4.84-8.86,1.74-3.22,3.47-6.45,5.22-9.69,3.7,1.98,2.07,4.31,.86,6.54-1.84,3.42-2.28,4.74-.8,6.02l4.19,2.27c1.73,.49,2.91-.19,3.85-2.23,.91-1.95,1.94-3.85,3.1-5.67,.6-.95,.78-3.07,2.42-2.26,1.58,.79,2.08,2.45,.96,4.38-1.68,2.87-3.29,5.8-4.81,8.76-.33,.61-.64,1.21-.95,1.83-2.13,4.21-5.09,8.04-5.95,12.82-.62,3.45-.38,6.75,.98,10.04,2.34,5.67,.86,9.96-3.92,12.35Z"/>
        <g>
          <path class="cls-3" d="M95.2,27.83c-5.39,.99-9.37,4.01-12.03,8.75-.13,.25-.28,.5-.42,.75l-.09,.16c-3.66,6.57-7.19,13.24-10.83,19.98-2.71-1.48-3.05-3.28-1.49-5.64,.55-.84,.96-1.77,1.42-2.66,2.37-4.53,1.23-6.98-3.68-8.15-2-.48-2.85,.74-3.63,2.18-1.84,3.38-3.66,6.77-5.52,10.2-2.53-1.71-2.65-3.36-1.34-5.67,3.37-5.92,6.57-11.94,9.75-17.97l.1-.18c.04-.08,.09-.16,.12-.25,2.7-5.23,3.5-10.55,.99-16.17-2.18-4.9-.65-9.47,3.59-11.79,4.88-2.68,10.73-1.36,13.08,3.67,1.78,3.8,3.71,4.95,7.97,4.31,5.43-.8,9.84,3.57,10.25,8.95,.38,5.09-2.49,8.47-8.26,9.53Z"/>
          <g class="cls-4">
            <path class="cls-1" d="M98.11,22.95c1.93,0,1.93-3,0-3s-1.93,3,0,3h0Z"/>
            <path class="cls-1" d="M96.61,20.55c-.93,2.1-3.92,1.6-5.79,1.84-2.3,.29-4.57,.98-6.53,2.25-3.58,2.33-5.82,6.07-7.88,9.7-.96,1.68,1.64,3.19,2.59,1.51,2.02-3.55,4.19-7.4,7.99-9.3,2.17-1.09,4.45-1.17,6.81-1.39,2.15-.2,4.46-.96,5.41-3.1,.33-.75,.21-1.6-.54-2.05-.63-.38-1.73-.2-2.05,.54h0Z"/>
            <path class="cls-1" d="M75.08,1.69c-2.19,.42-4.06,2.29-4.59,4.45-.09,.39-.05,.81,.15,1.16,.18,.31,.54,.61,.9,.69,.38,.09,.81,.07,1.16-.15,.32-.21,.6-.51,.69-.9,.06-.23,.13-.46,.22-.68l-.15,.36c.15-.36,.35-.7,.59-1.01l-.23,.3c.25-.32,.54-.61,.86-.86l-.3,.23c.31-.24,.64-.43,1-.59l-.36,.15c.28-.12,.57-.21,.87-.26,.35-.07,.72-.39,.9-.69,.19-.32,.27-.8,.15-1.16s-.34-.71-.69-.9c-.37-.2-.74-.23-1.16-.15h0Z"/>
          </g>
        </g>
        <g>
          <path class="cls-3" d="M66.97,60.04s-.07,0-.11,0c.24-.05,.49,.02,.7,.15s.37,.31,.53,.5c.42,.52,.76,1.1,1,1.73-.35,.7-.69,1.41-1.06,2.09s-.8,1.39-1.2,2.08c-1.23,2.18-2.42,4.38-3.57,6.6-.33,.61-.64,1.21-.95,1.83-2.13,4.21-5.09,8.04-5.95,12.82-.62,3.45-.38,6.75,.98,10.04,2.34,5.67,.86,9.96-3.92,12.35-4.81,2.41-10.96,.58-13.15-4.68-1.48-3.54-3.25-4.11-6.74-3.56-5.75,.93-10.31-2.93-10.95-8.63-.56-4.94,2.43-8.88,7.98-9.81,6.01-1,10.02-4.49,12.88-9.6,1.64-2.94,3.24-5.89,4.84-8.86,1.74-3.22,3.47-6.45,5.22-9.69,3.7,1.98,2.07,4.31,.86,6.54-1.84,3.42-2.28,4.74-.8,6.02,.62,.54,1.6,1.08,2.95,1.76,.44,.23,.85,.4,1.23,.51,1.73,.49,2.91-.19,3.85-2.23,.91-1.95,1.94-3.85,3.1-5.67,.6-.95,.78-3.07,2.42-2.26,1.58,.79,2.08,2.45,.95,4.39"/>
          <g class="cls-2">
            <path class="cls-1" d="M51.94,103.71c-.09,.12-.19,.23-.3,.33-.01,.01-.16,.16-.17,.15,0,0,.25-.17,.04-.03-.12,.08-.25,.16-.38,.23-.02,0-.2,.11-.2,.1,0,0,.29-.1,.05-.02-.14,.05-.29,.09-.43,.13-.07,.02-.15,.03-.22,.05-.23,.05,.01-.04,.06,0-.06-.04-.37,.03-.45,.03-.17,0-.34,0-.51-.01-.04,0-.28-.04-.09,0s-.08-.02-.12-.03c-.17-.03-.34-.08-.51-.12s-.34-.1-.5-.17c-.03-.01-.28-.11-.13-.05s-.1-.05-.12-.06c-.66-.31-1.28-.71-1.88-1.13-.64-.45-1.7-.14-2.05,.54-.41,.77-.15,1.57,.54,2.05,1.48,1.04,3.14,1.88,4.97,1.98,1.65,.09,3.47-.54,4.52-1.85,.49-.61,.64-1.53,0-2.12-.55-.5-1.59-.65-2.12,0h0Z"/>
            <path class="cls-1" d="M44.45,75.79c-.06,.08-.11,.15-.17,.23-.1,.13-.13,.17,0,.01-.11,.15-.24,.3-.35,.45-.23,.28-.46,.56-.69,.84-.48,.56-.99,1.11-1.51,1.65-1.04,1.06-2.15,2.06-3.32,2.98-.28,.22-.44,.72-.44,1.06,0,.37,.16,.81,.44,1.06s.66,.46,1.06,.44c.42-.02,.73-.18,1.06-.44,2.48-1.95,4.64-4.23,6.52-6.76,.22-.29,.24-.82,.15-1.16s-.36-.73-.69-.9c-.79-.42-1.55-.14-2.05,.54h0Z"/>
          </g>
        </g>
        <path class="cls-3" d="M64.29,56.9c-.62,1.24-1.65,1.01-2.49,.46-.78-.52-.9-1.39-.28-2.21,.6-.79,1.36-.95,2.2-.52,.76,.63,1,1.41,.57,2.28Z"/>
        <path class="cls-3" d="M68.09,49.77c-.64,.91-1.59,1.22-2.48,.42-.69-.61-.79-1.5-.2-2.26,.59-.76,1.4-.79,2.09-.49,.77,.75,1.18,1.51,.6,2.33Z"/>
        <path class="cls-3" d="M60.34,64.08c-.65,1.01-1.64,1.16-2.51,.43-.71-.58-.78-1.48-.17-2.28,.61-.79,1.38-.83,1.96-.58,.99,.8,1.26,1.59,.73,2.42Z"/>
      </g>
      <path class="cls-3" d="M57.61,47.73c-.17,.31-.32,.6-.44,.89l1.47-2.72c-.34,.61-.68,1.23-1.03,1.84Z"/>
      <path class="cls-3" d="M48.26,65.09l5.23-9.69s0,0,0,0c-1.75,3.24-3.48,6.48-5.22,9.69Z"/>
      <path class="cls-3" d="M67.35,29.75l-8.72,16.14c2.99-5.33,5.87-10.73,8.72-16.14Z"/>
      <path class="cls-5" d="M69.65,61.62s2.6-4.78,3.23-5.95c.31-.66,.28-.63-1.04,1.8-2.71-1.48-3.05-3.28-1.49-5.64,.55-.84,.96-1.77,1.42-2.66,2.37-4.53,1.23-6.98-3.68-8.15-2-.48-2.85,.74-3.63,2.18-1.84,3.38-3.66,6.77-5.52,10.2-2.2-1.49-2.57-2.92-1.78-4.78l-3.67,6.79c3.69,1.98,2.06,4.31,.85,6.53-1.84,3.42-2.28,4.74-.8,6.02l4.19,2.27c1.73,.49,2.91-.19,3.85-2.23,.91-1.95,1.94-3.85,3.1-5.67,.6-.95,.78-3.07,2.42-2.26,1.27,.64,1.41,3.29,1.41,3.29l1.14-1.75Zm-4.25-13.69c.59-.76,1.4-.79,2.09-.49,.77,.75,1.18,1.51,.6,2.33-.64,.91-1.59,1.22-2.48,.42-.69-.61-.79-1.5-.2-2.26Zm-7.58,16.59c-.71-.58-.78-1.48-.17-2.28,.61-.79,1.38-.83,1.96-.58,.99,.8,1.26,1.59,.73,2.42-.65,1.01-1.64,1.16-2.51,.43Zm3.97-7.16c-.78-.52-.9-1.39-.28-2.21,.6-.79,1.36-.95,2.2-.52,.76,.63,1,1.41,.57,2.28-.62,1.24-1.65,1.01-2.49,.46Z"/>
    </g>
    <g>
      <path class="cls-3" d="M6.4,13.58c1.12,2.95,5.01,3.43,8.16,3.43,8.54,0,17.08,.02,25.62,.03,2.17,0,4.43-.01,6.41-.92,4.04-1.86,3.61-5.38-.76-5.05-4.43,.33-8.94,1.87-13.4,2.4-4.38,.52-8.79,.78-13.2,.8-1.4,0-12.41,.42-12.83-.68Z"/>
      <path class="cls-3" d="M0,39.92c1.12-2.95,5.01-3.43,8.16-3.43,8.54,0,17.08-.02,25.62-.03,2.17,0,4.43,.01,6.41,.92,4.04,1.86,3.61,5.38-.76,5.05-4.43-.33-8.94-1.87-13.4-2.4-4.38-.52-8.79-.78-13.2-.8-1.4,0-12.41-.42-12.83,.68Z"/>
      <path class="cls-3" d="M21.37,25.7c-.82,0-1.87,.17-2.05,.96-.12,.53,.25,1.07,.73,1.32s1.04,.27,1.58,.28c5.58,.16,11.14,1.02,16.69,.34,1.27-.16,2.85-.72,2.87-1.99,.01-.79-.67-1.45-1.42-1.68-.75-.23-1.56-.14-2.34-.04-5.33,.67-10.68,.82-16.07,.81Z"/>
    </g>
  </g>
</svg>