<?xml version="1.0" encoding="UTF-8"?>
<svg id="Layer_2" data-name="Layer 2" xmlns="http://www.w3.org/2000/svg" xmlns:xlink="http://www.w3.org/1999/xlink" viewBox="0 0 100.77 93.17">
  <defs>
    <style>
      .cls-1 {
        fill: #fff;
      }

      .cls-2 {
        clip-path: url(#clippath-1);
      }

      .cls-3 {
        fill: #00989d;
      }

      .cls-4 {
        clip-path: url(#clippath);
      }

      .cls-5 {
        fill: #006868;
      }
    </style>
    <clipPath id="clippath">
      <path class="cls-3" d="M68.22,66.19c-11.23,.02-15.67-6.55-10.62-15.93,3.38-6.27,3.41-11.93,1.36-18.49-3.27-10.46,2.39-17.13,13.35-16.55,13.96,.74,20.84,9.85,17.84,23.7-1.75,8.1-5.64,15.19-10.57,21.72-2.96,3.93-7.05,5.71-11.35,5.55Z"/>
    </clipPath>
    <clipPath id="clippath-1">
      <path class="cls-3" d="M29.62,42c10.35,0,15.46,6.43,12.23,16.46-2.2,6.82-1.93,12.64,1.56,19.04,4.63,8.49,.81,14.65-8.84,15.59-4.36,.42-8.61-.63-11.49-3.83-7.86-8.71-13.15-18.84-13.25-30.83-.08-9.69,8.47-16.44,19.79-16.43Z"/>
    </clipPath>
  </defs>
  <g id="Layer_1-2" data-name="Layer 1">
    <g>
      <g>
        <path class="cls-3" d="M68.22,66.19c-11.23,.02-15.67-6.55-10.62-15.93,3.38-6.27,3.41-11.93,1.36-18.49-3.27-10.46,2.39-17.13,13.35-16.55,13.96,.74,20.84,9.85,17.84,23.7-1.75,8.1-5.64,15.19-10.57,21.72-2.96,3.93-7.05,5.71-11.35,5.55Z"/>
        <g class="cls-4">
          <path class="cls-1" d="M63.92,28.78c.06-.44,.16-.87,.3-1.29,.03-.1,.07-.2,.1-.3,.09-.27-.06,.11,.02-.05,.1-.21,.2-.42,.31-.62,.1-.18,.21-.36,.33-.54,.06-.09,.12-.17,.18-.26,.1-.14-.15,.16,.04-.04,.29-.33,.59-.65,.93-.94,.05-.04,.29-.21,.04-.04,.09-.06,.17-.12,.26-.18,.18-.12,.37-.24,.56-.34,.1-.06,.21-.11,.32-.16,.02,0,.43-.18,.16-.08,.22-.09,.44-.16,.67-.23s.46-.12,.69-.17c.12-.02,.23-.04,.35-.06,.17-.03-.19,.01,.1-.01,.52-.04,1.04-.05,1.56-.02,.78,.05,1.53-.73,1.5-1.5-.04-.86-.66-1.44-1.5-1.5-2.44-.17-4.83,.56-6.73,2.1-1.63,1.32-2.78,3.36-3.08,5.44-.11,.77,.19,1.65,1.05,1.85,.71,.16,1.73-.22,1.85-1.05h0Z"/>
          <path class="cls-1" d="M80.54,48.97c-1.17,2.26-2.55,4.49-4.26,6.39-1.54,1.71-3.46,3.02-5.77,2.73-.81-.1-1.5,.76-1.5,1.5,0,.89,.69,1.4,1.5,1.5,2.93,.36,5.68-1.27,7.63-3.32s3.65-4.69,4.99-7.28c.37-.72,.19-1.63-.54-2.05-.67-.39-1.68-.18-2.05,.54h0Z"/>
        </g>
      </g>
      <g>
        <path class="cls-3" d="M29.62,42c10.35,0,15.46,6.43,12.23,16.46-2.2,6.82-1.93,12.64,1.56,19.04,4.63,8.49,.81,14.65-8.84,15.59-4.36,.42-8.61-.63-11.49-3.83-7.86-8.71-13.15-18.84-13.25-30.83-.08-9.69,8.47-16.44,19.79-16.43Z"/>
        <g class="cls-2">
          <path class="cls-1" d="M15.34,69.98c1.36,5.83,3.99,11.46,8.84,15.16,.64,.49,1.68,.1,2.05-.54,.45-.77,.11-1.56-.54-2.05-4.18-3.19-6.31-8.39-7.47-13.37-.44-1.88-3.33-1.08-2.89,.8h0Z"/>
          <path class="cls-1" d="M34.54,48.19c.23,.19,.44,.4,.64,.62,.05,.06,.11,.13,.16,.19,.13,.15-.16-.23-.05-.07,.08,.12,.17,.24,.25,.37,.16,.25,.26,.54,.42,.79-.18-.28-.06-.15-.02-.04,.03,.08,.06,.16,.08,.23,.05,.14,.09,.28,.13,.43s.07,.29,.1,.44c.01,.06,.01,.14,.03,.2-.05-.13-.03-.29,0-.05,.03,.3,.04,.59,.03,.89,0,.06-.06,.43-.03,.44-.02-.01,.06-.35,.01-.1-.02,.08-.03,.16-.05,.24-.06,.31-.16,.61-.27,.9-.28,.73,.31,1.68,1.05,1.85,.86,.2,1.54-.26,1.85-1.05,1.09-2.86,.16-6.44-2.19-8.41-.6-.5-1.54-.63-2.12,0-.51,.56-.64,1.58,0,2.12h0Z"/>
        </g>
      </g>
      <path class="cls-5" d="M59.08,11.42c-.06,3.59-1.34,6.21-4.99,6.08-3.95-.14-5.93-3.02-6.13-6.66-.17-3.07,.89-6.08,4.68-6.12,4.45-.05,5.92,3.12,6.44,6.71Z"/>
      <path class="cls-5" d="M66.33,10.93c-3.4-.56-4.57-2.76-4.44-5.74,.12-2.7,1.35-5.09,4.27-5.19,3.33-.11,4.63,2.52,4.64,5.41,0,2.85-1.17,5.22-4.47,5.51Z"/>
      <path class="cls-5" d="M83.3,5.4c-.67,2.8-1.63,5.41-5.02,5.42-2.9,0-3.98-2.19-3.84-4.64,.17-2.9,1.61-5.33,4.9-5.35,2.8-.02,3.77,2.09,3.97,4.57Z"/>
      <path class="cls-5" d="M89.89,5.86c2.93,0,4.13,1.34,4.16,3.82,.05,3.15-1.61,5.24-4.56,5.65-2.42,.33-3.79-1.58-3.85-3.87-.07-3.04,1.63-4.92,4.24-5.6Z"/>
      <path class="cls-5" d="M96.27,23.23c-2.21-.1-3.43-1.36-3.28-3.13,.2-2.41,1.52-4.23,4.33-4.32,2.3-.08,3.72,1.13,3.41,3.28-.35,2.41-2.08,3.92-4.46,4.16Z"/>
      <g>
        <path class="cls-5" d="M52.75,37.87c-.15,3.21-1.97,6.23-6.02,6.56-3.49,.28-5.2-2.62-5.13-5.71,.09-3.75,1.86-6.99,6.12-7.22,3.56-.19,5.03,2.23,5.02,6.38Z"/>
        <path class="cls-5" d="M33.96,26.84c3.41,.27,4.82,2.08,4.88,4.94,.07,2.96-.87,5.58-4.31,5.7-3.03,.11-4.38-2.12-4.53-4.88-.17-3.01,1.07-5.19,3.96-5.76Z"/>
        <path class="cls-5" d="M21.33,27.4c3.13,.46,4.72,2.38,4.93,5.4,.18,2.56-.74,4.65-3.66,4.66-3.28,.02-4.77-2.23-5-5.18-.2-2.54,1.03-4.34,3.73-4.88Z"/>
        <path class="cls-5" d="M15.11,37.94c-.27,2.56-1.3,4.24-3.9,3.99-3.27-.31-4.58-2.59-4.55-5.56,.02-2.31,1.39-4.2,3.81-3.89,3.01,.39,4.42,2.69,4.64,5.45Z"/>
        <path class="cls-5" d="M7.8,46.61c-.03,1.85-.9,3.13-2.86,3.19-2.54,.07-4.4-1.21-4.87-3.72-.41-2.2,1-3.58,3.13-3.59,2.55-.01,4.1,1.54,4.6,4.12Z"/>
      </g>
    </g>
  </g>
</svg>