<?xml version="1.0" encoding="UTF-8"?>
<svg id="Layer_2" data-name="Layer 2" xmlns="http://www.w3.org/2000/svg" xmlns:xlink="http://www.w3.org/1999/xlink" viewBox="0 0 77.89 105.24">
  <defs>
    <style>
      .cls-1 {
        fill: #fff;
      }

      .cls-2 {
        clip-path: url(#clippath-1);
      }

      .cls-3 {
        fill: #00989d;
      }

      .cls-4 {
        clip-path: url(#clippath);
      }

      .cls-5 {
        fill: #006868;
      }
    </style>
    <clipPath id="clippath">
      <path class="cls-3" d="M24.54,98.19c-1,1.63-.98,3.88-1.43,5.84,.44,.16,.88,.33,1.32,.5l-15.01,.69c4.88-8.05,5.66-12.25,2.67-15.95C.91,75.49-2.13,61.07,8.3,45.44c1.22-1.82,1.58-5.36,4.54-4.12,3.02,1.25,.84,4.12,.18,6.1-3.45,10.34-2.4,20.11,3.23,30.53,1.23-4.33-.93-7.02-1.38-9.97-.22-1.47-1.48-3.35,.29-4.15,1.79-.81,3.59,.44,4.5,2.17,5.32,10.15,12.41,20.03,4.87,32.21Z"/>
    </clipPath>
    <clipPath id="clippath-1">
      <path class="cls-3" d="M56.4,61.05c1.16,1.52,1.36,3.78,2.01,5.69-.42,.21-.84,.42-1.27,.63l15.06-.8c-5.67-7.55-6.87-11.67-4.25-15.66,9.79-14.88,11.39-29.59-.58-44.16-1.39-1.69-2.11-5.19-4.95-3.67-2.89,1.55-.43,4.2,.43,6.11,4.47,9.98,4.4,19.84-.19,30.8-1.66-4.21,.23-7.11,.39-10.1,.08-1.49,1.15-3.5-.71-4.12-1.87-.63-3.54,.8-4.28,2.61-4.3,10.67-10.4,21.23-1.66,32.65Z"/>
    </clipPath>
  </defs>
  <g id="Layer_1-2" data-name="Layer 1">
    <g>
      <g>
        <path class="cls-5" d="M37.85,46.63c-4.08-.36-6.42,2-6.72,5.83-.34,4.28,2.13,6.98,6.36,7.12,3.89,.12,6.02-2.41,6.49-6.36-.27-3.78-2.22-6.24-6.13-6.59Zm.1,10.48c-2.5-.05-4.02-1.31-4.26-3.66-.25-2.37,.93-4.06,3.41-4.24,2.36-.17,4.01,.98,4.19,3.5,.17,2.4-1.05,3.88-3.34,4.41Z"/>
        <path class="cls-5" d="M48.14,69.06c-.46,3.23-1.96,4.98-4.9,4.89-3-.1-4.52-2.24-4.43-4.88,.09-2.67,1.8-4.61,4.82-4.44,2.93,.17,4.28,2,4.5,4.43Z"/>
        <path class="cls-5" d="M34.97,36.5c0,2.87-1.63,4.52-4.41,4.74-.54,.05-1.04,.02-1.49-.06-1.73-.34-2.86-1.58-3.24-3.32-.06-.29-.11-.61-.13-.93-.18-2.8,1.67-4.7,4.35-4.91,2.81-.22,4.4,1.67,4.91,4.49Z"/>
        <path class="cls-5" d="M33.22,23.42c-.01,2.33-1.33,3.66-3.57,3.85-2.37,.2-3.79-1.28-3.94-3.5-.15-2.27,1.35-3.81,3.53-3.98,2.27-.18,3.56,1.35,3.99,3.64Z"/>
        <path class="cls-5" d="M35.26,12.25c0,1.7-.97,2.67-2.61,2.8-1.73,.14-2.76-.94-2.87-2.55-.11-1.66,.99-2.78,2.57-2.9,1.66-.13,2.6,.99,2.91,2.65Z"/>
        <path class="cls-5" d="M37.29,5.14c0,1.07-.61,1.68-1.64,1.76-1.09,.09-1.74-.59-1.8-1.6-.07-1.04,.62-1.75,1.61-1.82,1.04-.08,1.63,.62,1.83,1.67Z"/>
        <path class="cls-5" d="M41.99,82.7c.01-2.33,1.33-3.66,3.57-3.85,2.37-.2,3.79,1.28,3.94,3.5,.15,2.27-1.35,3.81-3.53,3.98-2.27,.18-3.56-1.35-3.99-3.64Z"/>
        <path class="cls-5" d="M39.96,93.88c0-1.7,.97-2.67,2.61-2.8,1.73-.14,2.76,.94,2.87,2.55,.11,1.66-.99,2.78-2.57,2.9-1.66,.13-2.6-.99-2.91-2.65Z"/>
        <path class="cls-5" d="M35.88,100.98c0-1.07,.61-1.68,1.64-1.76,1.09-.09,1.74,.59,1.8,1.6,.07,1.04-.62,1.75-1.61,1.82-1.04,.08-1.63-.62-1.83-1.67Z"/>
      </g>
      <g>
        <path class="cls-3" d="M24.54,98.19c-1,1.63-.98,3.88-1.43,5.84,.44,.16,.88,.33,1.32,.5l-15.01,.69c4.88-8.05,5.66-12.25,2.67-15.95C.91,75.49-2.13,61.07,8.3,45.44c1.22-1.82,1.58-5.36,4.54-4.12,3.02,1.25,.84,4.12,.18,6.1-3.45,10.34-2.4,20.11,3.23,30.53,1.23-4.33-.93-7.02-1.38-9.97-.22-1.47-1.48-3.35,.29-4.15,1.79-.81,3.59,.44,4.5,2.17,5.32,10.15,12.41,20.03,4.87,32.21Z"/>
        <g class="cls-4">
          <path class="cls-1" d="M24.51,85.35c.66,3.37,0,6.91-1.81,9.83-.48,.78,.75,1.49,1.22,.72,2-3.26,2.68-7.18,1.95-10.93-.17-.89-1.54-.52-1.37,.38h0Z"/>
          <path class="cls-1" d="M3.53,56.48c-.52,2.21-.8,4.47-.85,6.74-.02,.91,1.4,.91,1.42,0,.04-2.15,.31-4.28,.8-6.37,.21-.89-1.16-1.27-1.37-.38h0Z"/>
        </g>
      </g>
      <path class="cls-5" d="M29.84,88.81c-1.37,5.29-3.16,10.47-4.77,15.7l-.64,.03c-.44-.17-.88-.34-1.32-.5,.45-1.96,.43-4.22,1.43-5.84,7.54-12.18,.45-22.06-4.87-32.21-.91-1.73-2.71-2.97-4.5-2.17-1.78,.8-.52,2.68-.29,4.15,.46,2.95,2.62,5.64,1.38,9.97-5.63-10.42-6.68-20.19-3.23-30.53,.66-1.98,2.84-4.85-.18-6.1-2.97-1.23-3.33,2.31-4.54,4.12-10.43,15.63-7.39,30.06,3.79,43.85,3,3.7,2.21,7.9-2.67,15.95h-.28c-1.76-1.23-.36-2.7,.1-3.82,2.25-5.42,2.02-9.39-2.58-14.42-9.78-10.7-8.34-35.94,1.35-46.57,.05-.06,.1-.12,.16-.17,1.85-1.98,3.96-2.42,6.3-1.41,.35,.15,.66,.33,.92,.52,1.46,1.08,1.69,2.84,1.28,4.71-.54,2.53-1,5.11-1.88,7.52-1.69,4.64-1.93,7.89,3.83,10.34,5.98,2.55,12.89,20.42,11.22,26.88Z"/>
      <g>
        <g>
          <path class="cls-3" d="M56.4,61.05c1.16,1.52,1.36,3.78,2.01,5.69-.42,.21-.84,.42-1.27,.63l15.06-.8c-5.67-7.55-6.87-11.67-4.25-15.66,9.79-14.88,11.39-29.59-.58-44.16-1.39-1.69-2.11-5.19-4.95-3.67-2.89,1.55-.43,4.2,.43,6.11,4.47,9.98,4.4,19.84-.19,30.8-1.66-4.21,.23-7.11,.39-10.1,.08-1.49,1.15-3.5-.71-4.12-1.87-.63-3.54,.8-4.28,2.61-4.3,10.67-10.4,21.23-1.66,32.65Z"/>
          <g class="cls-2">
            <path class="cls-1" d="M58.18,62.79c.37,.8,.76,1.61,1.38,2.25s1.52,1.09,2.43,1.04c.37-.02,.73-.31,.71-.71-.02-.36-.31-.73-.71-.71-.09,0-.18,0-.28,0-.02,0-.03,0-.05,0-.05,0-.03,0,.06,0-.02,.01-.1-.02-.12-.02-.09-.02-.18-.04-.26-.07-.02,0-.16-.06-.06-.02s-.03-.02-.05-.03c-.08-.04-.15-.08-.22-.12-.04-.03-.09-.05-.13-.08-.02-.01-.14-.09-.05-.03s-.03-.03-.05-.04c-.03-.03-.06-.06-.1-.08-.07-.06-.14-.13-.2-.2s-.12-.14-.18-.21c-.11-.14,.05,.08,0,0-.03-.04-.05-.07-.08-.11-.11-.16-.21-.32-.3-.49-.19-.35-.36-.71-.53-1.07-.15-.34-.67-.45-.97-.25-.35,.22-.42,.61-.25,.97h0Z"/>
            <path class="cls-1" d="M70.02,15.41c1.02,2.57,1.57,5.28,1.61,8.05,.01,.91,1.43,.91,1.42,0-.04-2.88-.59-5.74-1.66-8.42-.14-.36-.47-.6-.87-.49-.34,.09-.64,.51-.49,.87h0Z"/>
            <path class="cls-1" d="M54.89,40.42c-.89,3.58-2.39,7.61-.75,11.19,.38,.83,1.6,.11,1.22-.72-.69-1.51-.65-3.25-.36-4.86,.32-1.77,.82-3.5,1.25-5.24,.22-.89-1.15-1.26-1.37-.38h0Z"/>
          </g>
        </g>
        <path class="cls-5" d="M50.17,52.21c1.9,5.14,4.2,10.14,6.32,15.2l.65-.03c.42-.21,.84-.42,1.27-.63-.65-1.91-.85-4.17-2.01-5.69-8.74-11.42-2.64-21.98,1.66-32.65,.74-1.82,2.42-3.24,4.28-2.61,1.85,.62,.78,2.62,.71,4.12-.16,2.99-2.05,5.89-.39,10.1,4.59-10.97,4.66-20.82,.19-30.8-.86-1.91-3.31-4.56-.43-6.11,2.84-1.53,3.55,1.97,4.95,3.67,11.97,14.57,10.37,29.28,.58,44.16-2.63,3.99-1.42,8.11,4.25,15.66l.28-.02c1.63-1.41,.09-2.75-.48-3.82-2.78-5.19-2.95-9.18,1.14-14.66,8.7-11.66,4.75-36.72-5.98-46.37-.05-.06-.11-.11-.17-.16-2.05-1.79-4.2-2.02-6.43-.79-.33,.18-.62,.39-.87,.61-1.35,1.23-1.4,3-.81,4.83,.79,2.47,1.51,5,2.63,7.33,2.14,4.46,2.71,7.68-2.8,10.71-5.72,3.14-10.84,21.68-8.53,27.96Z"/>
      </g>
    </g>
  </g>
</svg>