<?xml version="1.0" encoding="UTF-8"?>
<svg id="Layer_2" data-name="Layer 2" xmlns="http://www.w3.org/2000/svg" viewBox="0 0 103.25 93.25">
  <defs>
    <style>
      .cls-1 {
        stroke-dasharray: 0 0 21.66 21.66;
      }

      .cls-1, .cls-2, .cls-3 {
        fill: none;
        stroke: #006868;
        stroke-linecap: round;
        stroke-miterlimit: 10;
        stroke-width: 4.25px;
      }

      .cls-4 {
        fill: #00989d;
      }

      .cls-3 {
        stroke-dasharray: 0 0 18.33 18.33;
      }
    </style>
  </defs>
  <g id="Layer_1-2" data-name="Layer 1">
    <g>
      <path class="cls-2" d="M83.95,2.13h17.17V19.13"/>
      <line class="cls-3" x1="101.13" y1="37.46" x2="101.13" y2="64.95"/>
      <polyline class="cls-2" points="101.13 74.12 101.13 91.13 84.12 91.13"/>
      <line class="cls-1" x1="62.46" y1="91.13" x2="29.96" y2="91.13"/>
      <polyline class="cls-2" points="19.13 91.13 2.13 91.13 2.13 74.12"/>
      <line class="cls-3" x1="2.13" y1="55.79" x2="2.13" y2="28.3"/>
      <path class="cls-2" d="M2.13,19.13V2.13H19.41"/>
    </g>
    <g>
      <path class="cls-4" d="M49.05,77.31v-11.24c-.71,.3-1.4,.61-2.09,.9-.33,.14-.22,.36-.15,.59,.31,1.04,.02,1.91-.76,2.65-3.96,3.71-8.63,5.92-14,6.61-2.98,.39-5.95,.28-8.88-.47-1.08-.28-2.11-.68-3.06-1.27-3.53-2.2-4.28-6.16-1.75-9.47,.32-.42,.36-.67,.07-1.14-1.88-2.99-1.36-6.69,1.23-9.17,.26-.25,.52-.4,.32-.9-1.32-3.22-.18-6.25,2.93-7.78,.56-.28,.64-.45,.31-1.01-1.43-2.44-.78-5.56,1.53-7.29,.51-.38,.63-.54,.13-1.07-2.52-2.67-1.79-6.85,1.52-8.68,.57-.31,.77-.53,.53-1.24-.75-2.18,.28-4.84,2.37-6.21,2.36-1.56,5.03-1.98,7.79-1.92,1.14,.03,1.97,1.17,1.92,2.4-.05,1.2-.92,2.13-2.09,2.16-1.41,.04-2.8,.17-4.12,.66-.69,.25-1.64,.51-1.63,1.29,0,.71,.99,.83,1.6,1.06,2.87,1.05,5.88,1.47,8.88,1.88,2.25,.31,4.51,.48,6.77,.65,.54,.04,.73-.1,.72-.67-.03-1.9-.03-3.8,0-5.7,0-.49-.15-.67-.63-.62-.31,.03-.63,.01-.95,0-1.34-.03-2.29-.99-2.3-2.32-.01-1.31,.95-2.26,2.3-2.29,1.56-.03,1.56-.03,1.57-1.57,0-.37,0-.75,.1-1.1,.29-1.09,1.22-1.72,2.32-1.61,1.01,.1,1.8,.95,1.9,2.02,.06,.71-.26,1.58,.14,2.08,.4,.49,1.29,.09,1.96,.2,1.01,.16,1.83,1.19,1.81,2.29-.02,1.22-.91,2.19-2.09,2.28-.39,.03-.79,.04-1.19,0-.49-.04-.63,.15-.62,.63,.02,1.9,.03,3.8,0,5.7-.01,.59,.2,.7,.73,.66,3.39-.24,6.78-.56,10.13-1.16,2.17-.39,4.34-.79,6.35-1.75,.9-.43,.91-.84,.1-1.42-1.48-1.05-3.21-1.1-4.91-1.19-1.82-.09-2.88-1.96-1.94-3.53,.34-.57,.85-1.03,1.51-1.04,3.08-.04,6.08,.36,8.55,2.44,1.71,1.44,2.36,3.86,1.61,5.97-.18,.51,.04,.61,.39,.81,3.11,1.75,4.13,5.08,2.45,7.93-.09,.16-.19,.32-.31,.46-.27,.34-.56,.68-.84,1.01,.34,.29,.7,.56,1.02,.86,1.94,1.81,2.41,4.68,1.07,6.95-.31,.52-.28,.68,.28,.95,3.17,1.56,4.31,4.55,2.97,7.81-.19,.47,.05,.61,.29,.85,2.2,2.28,3.03,4.91,1.91,7.97-.24,.66-.89,1.28-.86,1.88,.04,.58,.75,1.09,1.06,1.71,1.38,2.77,.69,5.82-1.75,7.73-1.81,1.41-3.94,2-6.16,2.27-7.32,.89-13.85-1-19.56-5.69-.41-.33-.79-.7-1.16-1.07-.68-.7-.93-1.54-.59-2.47,.16-.42,.03-.55-.32-.68-.63-.25-1.25-.53-1.95-.83v11.25h-4.44Zm24.61-27.3c-.89-.16-1.88,.25-2.9,.51-5.41,1.38-10.94,1.98-16.5,2.36-.62,.04-.88,.16-.85,.84,.06,1.26,.05,2.53,0,3.8-.02,.62,.14,.83,.79,.77,2.34-.19,4.68-.37,7.01-.65,4.17-.51,8.31-1.11,12.33-2.38,1.61-.51,3.21-1.08,4.53-2.19,1.05-.88,.95-1.74-.28-2.31-1.24-.58-2.58-.72-4.14-.74Zm-24.55,5.61c0-.71-.02-1.43,0-2.14,.01-.39-.1-.55-.52-.58-1.87-.14-3.73-.28-5.59-.47-4.04-.41-8.05-1.03-11.98-2.12-2.06-.57-4.08-.35-6.05,.37-1.5,.55-1.61,1.5-.37,2.5,1.04,.84,2.26,1.34,3.51,1.78,3.88,1.37,7.91,1.99,11.97,2.54,2.72,.36,5.45,.57,8.18,.8,.74,.06,.92-.18,.86-.86-.06-.6-.01-1.21-.01-1.82Zm4.33-9.82c0,.58,.04,1.17-.01,1.74-.06,.64,.16,.82,.79,.76,2.57-.23,5.15-.43,7.71-.79,3.27-.45,6.52-.99,9.66-2.04,1.3-.44,2.6-.9,3.65-1.83,.7-.62,.71-1.22-.08-1.66-1.55-.88-3.23-1.35-5.01-.96-2.21,.49-4.43,.97-6.67,1.3-3.05,.46-6.12,.8-9.2,.95-.66,.03-.95,.24-.86,.95,.07,.52,.01,1.05,.01,1.58Zm-4.33,.07h0c0-.48,0-.95,0-1.43,0-1.12,0-1.11-1.09-1.18-5.32-.35-10.59-1.04-15.79-2.27-1.7-.4-3.41,.11-4.91,1.03-.68,.42-.68,.95-.11,1.51,.53,.53,1.18,.88,1.86,1.18,2.82,1.27,5.82,1.85,8.83,2.37,3.43,.59,6.9,.9,10.36,1.2,.62,.05,.94-.04,.86-.76-.06-.55-.01-1.11-.01-1.66Zm0-9.52c0-.63-.02-1.27,0-1.9,.02-.42-.14-.54-.55-.56-1.42-.09-2.84-.18-4.26-.32-3.54-.34-7.08-.78-10.53-1.68-1.89-.49-3.67-.07-5.36,.75-.92,.45-.92,1.04-.1,1.7,.86,.69,1.86,1.11,2.88,1.46,5.62,1.91,11.48,2.45,17.35,2.89,.48,.04,.59-.17,.57-.59-.02-.58,0-1.16,0-1.74Zm4.33-.24c0,.68,.03,1.24,0,1.79-.05,.61,.13,.82,.79,.78,2.32-.17,4.63-.37,6.93-.68,3.61-.48,7.2-1.06,10.63-2.35,.94-.35,1.86-.77,2.62-1.44,.61-.54,.61-1.07-.09-1.47-1.53-.88-3.27-1.36-4.95-.95-4.48,1.08-9.02,1.65-13.6,1.99-.73,.05-1.68-.11-2.14,.28-.53,.46-.08,1.44-.18,2.07Zm4.2,26.57c5.63,2.33,11.42,3.35,17.46,2.07,1.79-.38,3.53-.94,4.9-2.24,1.25-1.2,1.24-2.58,0-3.81-.55-.54-1.12-.97-1.91-.34-.26,.21-.61,.3-.93,.43-4.2,1.74-8.64,2.5-13.11,3.13-2.13,.3-4.27,.51-6.41,.76Zm-12.72,.04c-2.89-.32-5.76-.64-8.61-1.12-4.24-.71-8.46-1.51-12.35-3.48-.32-.16-.53-.08-.79,.08-1.93,1.25-2.03,3.27-.21,4.68,.99,.77,2.14,1.23,3.34,1.57,3.46,.99,6.97,1.05,10.5,.56,2.8-.39,5.5-1.15,8.11-2.3Zm17.92,6.62c.1,.07,.2,.15,.31,.21,3.84,2.21,7.97,3.14,12.38,2.8,1.42-.11,2.83-.34,4.14-.96,.48-.23,.94-.49,1.3-.89,.51-.57,.45-1.15-.07-1.94-.41-.62-.83-.68-1.51-.37-2.34,1.04-4.83,1.5-7.36,1.67-3.06,.2-6.11,.01-9.17-.51Zm-23.08-.13c-.13,.01-.26,.02-.38,.05-5.65,1.06-11.22,1.05-16.62-1.24-.17-.07-.33-.14-.52-.04-1.03,.5-1.26,1.95-.42,2.71,.46,.42,1,.68,1.57,.9,1.07,.42,2.18,.61,3.31,.72,4.69,.45,9.05-.53,13.07-3.09Z"/>
      <path class="cls-4" d="M50.4,6.35c10.23,.03,19.41,2.44,28.2,6.54,5.04,2.35,9.78,5.19,14.32,8.39,.53,.38,.98,.8,1.07,1.49,.1,.8-.12,1.47-.81,1.92-.66,.42-1.29,.29-1.91-.15-4-2.85-8.19-5.4-12.61-7.55-6.42-3.13-13.12-5.38-20.22-6.34-10.09-1.37-19.83-.1-29.17,4.01-5.45,2.4-10.44,5.52-14.81,9.58-.93,.87-1.79,.95-2.49,.24-.75-.75-.76-1.97,.02-2.78,1.21-1.26,2.56-2.36,3.95-3.41,8.42-6.33,17.83-10.25,28.32-11.51,2.2-.27,4.41-.39,6.15-.42Z"/>
    </g>
  </g>
</svg>