<?xml version="1.0" encoding="UTF-8"?>
<svg id="Layer_2" data-name="Layer 2" xmlns="http://www.w3.org/2000/svg" viewBox="0 0 52 52">
  <defs>
    <style>
      .cls-1 {
        fill: #fff;
      }

      .cls-2 {
        fill: #ffb203;
      }

      .cls-3 {
        fill: #006868;
      }
    </style>
  </defs>
  <g id="Layer_1-2" data-name="Layer 1">
    <circle class="cls-3" cx="26" cy="26" r="26"/>
    <g>
      <g>
        <path class="cls-1" d="M38.91,30.65c-.57-.41-.58-1.98-.57-2.45,.07-3.33-.46-6.66-1.54-9.81-.32-.92-.67-1.58-1.25-2.38-.6-.83-1.24-1.62-1.92-2.38-.9-1.01-1.87-1.96-2.89-2.84-.24-.21-1.19-1.2-1.45-.99-.26,.21-.01,1.53,.02,1.85,.09,.86-.28,1.31-1.09,1.62-1.59,.6-3.13,1.31-3.85,3.04-.14,.33-.52,.58-.81,.83-.63,.54-2.12,.47-1.63,1.78,.47,1.27,1.43,2.17,2.97,2.27,1.88,.12,5.32-.07,5.58,2.58,.1,1.05-.45,2.09-1.24,2.79s-1.81,1.09-2.82,1.38c-3.38,.96-6.73,1.83-10.2,2.42-.33,.06-.7,.11-.99-.07-.71-.43,.2-1.41,.59-1.71,.39-.31,.85-.51,1.31-.7,2.81-1.18,5.75-2.03,8.76-2.54,.41-.07,.84-.14,1.19-.37s.59-.69,.45-1.08c-.11-.29-.4-.48-.7-.56s-.61-.06-.92-.05c-1.15,.03-2.32-.1-3.39-.51s-2.06-1.12-2.67-2.09c-.93-1.47-.89-3.52,.46-4.7,1.42-1.25,3.24-1.98,4.54-3.37,.93-1.01,1.37-2.18,1.39-3.54,.01-.95-.05-1.96,1.06-2.26,1.68-.45,4.16,1.01,5.49,1.9,1.76,1.18,3.25,2.74,4.41,4.5,1.81,2.75,2.87,5.93,3.55,9.13,.51,2.37,.8,5.89-.74,7.95-.14,.18-.3,.36-.52,.43-.22,.08-.4,.04-.55-.06Z"/>
        <path class="cls-1" d="M27.76,31.67c.08-.22,.27-.46,.62-.7,.56-.38,1.28-.4,1.95-.36,3.22,.18,6.96,1.35,8.97,4.04,2.78,3.71,.16,9.4-4.84,10.81-2.18,.62-4.38,.94-6.66,.85-2.98-.11-5.96-.19-8.95-.24-1.25-.02-2.21,.18-3.45-.24-1.13-.38-2.19-1-3.06-1.81-2.39-2.22-3.16-5.51-2.41-8.63,.24-1,.64-2.3,1.68-2.73,.47-.19,1.1-.11,1.39,.31,.68,.97-.19,2.97-.17,4.05,.03,1.52,.58,3.04,1.58,4.2,1.68,1.94,3.8,2.2,6.19,2.19,2.89-.02,5.79-.17,8.69-.12,1.38,.02,3.18,.3,4.49-.2,1.2-.46,2.38-1.23,3.15-2.27,.97-1.31,1.12-3.16,.02-4.45-.81-.95-2.01-1.47-3.19-1.89-1.29-.46-2.62-.82-3.97-1.09-.86-.17-2.33-.85-2.04-1.71Z"/>
      </g>
      <path class="cls-2" d="M9.13,14.75c.08,.18,.19,.35,.31,.5,.31,.4,.7,.73,1.04,1.11,2.04,2.27,1.59,5.38-.35,7.45-1.14,1.22-1.51,2.96-.94,4.48,.23,.63,2.18,3.5,3.05,2.73,.12-.11,.18-.27,.21-.43,.42-1.97-1.62-3.1-.94-5.14,.42-1.26,1.33-2.2,1.72-3.51s.46-2.57,.25-3.85c-.25-1.47-.89-2.86-1.84-4.01-.35-.43-.89-1.19-1.49-1.24s-1.11,.48-1.18,1.01c-.04,.31,.03,.61,.16,.9Z"/>
    </g>
  </g>
</svg>