<?xml version="1.0" encoding="UTF-8"?>
<svg id="Layer_2" data-name="Layer 2" xmlns="http://www.w3.org/2000/svg" xmlns:xlink="http://www.w3.org/1999/xlink" viewBox="0 0 128 94.22">
  <defs>
    <style>
      .cls-1 {
        fill: #fff;
      }

      .cls-2 {
        fill: #00989d;
      }

      .cls-3 {
        clip-path: url(#clippath);
      }

      .cls-4 {
        fill: #006868;
      }
    </style>
    <clipPath id="clippath">
      <path class="cls-2" d="M34.82,19.1c9.01,9.35,18.37,18.36,27.47,27.61,2.39,2.43,4.83,3.3,7.83,1.91,7.2-.97,10.36,2.08,11.45,9.17,2.58,16.48,17.49,27.74,32.25,24.95,2.59-.49,5.85-.67,6.82-3.55,.92-2.74-2.02-4.13-3.62-5.82-3.36-3.52-6.79-6.97-10.37-10.27C87.82,45.7,73.16,24.37,53.97,7.3c-1.21-1.08-2.28-2.3-3.48-3.4-5.11-4.74-10.58-5.37-15.96-.71-4.52,3.93-4.5,10.97,.29,15.92Z"/>
    </clipPath>
  </defs>
  <g id="Layer_1-2" data-name="Layer 1">
    <g>
      <g>
        <g>
          <path class="cls-2" d="M34.82,19.1c9.01,9.35,18.37,18.36,27.47,27.61,2.39,2.43,4.83,3.3,7.83,1.91,7.2-.97,10.36,2.08,11.45,9.17,2.58,16.48,17.49,27.74,32.25,24.95,2.59-.49,5.85-.67,6.82-3.55,.92-2.74-2.02-4.13-3.62-5.82-3.36-3.52-6.79-6.97-10.37-10.27C87.82,45.7,73.16,24.37,53.97,7.3c-1.21-1.08-2.28-2.3-3.48-3.4-5.11-4.74-10.58-5.37-15.96-.71-4.52,3.93-4.5,10.97,.29,15.92Z"/>
          <g class="cls-3">
            <path class="cls-4" d="M71.03,34.47c-1.96,1.25-3.62,2.87-4.95,4.77-.2,.29-.23,.77-.14,1.09s.34,.69,.65,.85c.33,.17,.73,.26,1.09,.14s.63-.33,.85-.65c.14-.2,.29-.4,.44-.6l-.22,.29c.82-1.06,1.78-2.02,2.84-2.84l-.29,.22c.38-.29,.76-.56,1.16-.81,.62-.4,.93-1.28,.51-1.94-.4-.62-1.27-.94-1.94-.51h0Z"/>
            <path class="cls-4" d="M68.12,31.56c-1.96,1.25-3.62,2.87-4.95,4.77-.2,.29-.23,.77-.14,1.09s.34,.69,.65,.85c.33,.17,.73,.26,1.09,.14s.63-.33,.85-.65c.14-.2,.29-.4,.44-.6l-.22,.29c.82-1.06,1.78-2.02,2.84-2.84l-.29,.22c.38-.29,.76-.56,1.16-.81,.62-.4,.93-1.28,.51-1.94-.4-.62-1.27-.94-1.94-.51h0Z"/>
            <path class="cls-1" d="M107.64,76.38c-4.19,.39-7.87-1.85-11.29-3.96-.78-.48-1.49,.75-.72,1.22,3.62,2.23,7.58,4.56,12.01,4.15,.9-.08,.91-1.5,0-1.42h0Z"/>
            <path class="cls-1" d="M53.24,12.74c-1.64-1.54-3.26-3.1-4.92-4.6-1.42-1.28-2.99-2.48-4.88-2.93-.89-.21-1.27,1.16-.38,1.37,1.77,.42,3.18,1.57,4.49,2.78,1.58,1.45,3.13,2.93,4.69,4.39,.67,.62,1.67-.38,1-1h0Z"/>
          </g>
        </g>
        <path class="cls-4" d="M34.53,3.19c5.38-4.66,10.85-4.03,15.96,.71,1.19,1.11,2.27,2.33,3.48,3.4,19.19,17.07,33.85,38.39,52.68,55.79,3.58,3.3,7.01,6.75,10.37,10.27,1.6,1.69,4.54,3.08,3.62,5.82-.97,2.88-4.23,3.06-6.82,3.55-14.77,2.79-29.68-8.47-32.25-24.95-1.09-7.09-4.25-10.14-11.45-9.17-3,1.4-5.44,.52-7.83-1.91-9.09-9.25-18.46-18.26-27.47-27.61-4.79-4.95-4.82-11.99-.29-15.92Zm50.12,55.52c2.25,13.38,15.51,23.31,27.32,21.46,1.51-.25,3.51,.06,4.2-1.77,.74-1.92-1.09-2.87-2.17-3.94-10.14-10.15-20.35-20.22-30.44-30.42-2.9-2.94-4.99-2.36-7.36,1.16,5.59,2.78,7.42,7.49,8.44,13.52ZM36.13,16.29c9.24,9.5,18.23,19.31,28.18,28.01,5.69,4.96,9.37-2.53,13.36-5.08,4.03-2.58-.68-4.52-2.14-6.02-8.42-8.77-17.09-17.3-25.69-25.91-2.11-2.11-4.18-4.31-9.56-4.32-1.19,.01-3.74,1.43-5.24,4.28-1.66,3.17-1.38,6.52,1.09,9.05Z"/>
      </g>
      <path class="cls-4" d="M62.4,89.64c.11,.01,.22,.04,.32,.08,.41,.19,.42,.61,.31,.98-.82,2.68-4.19,2.99-6.53,3.18-6,.49-11.98,.04-17.99,.06-5.65,.02-11.3,.11-16.95,.12-2.73,0-5.56-.02-8.05-1.57-5.08-3.17-4.54-9.17,.95-8.62,5.56,.56,11.24,3.19,16.84,4.09,5.38,.86,10.82,1.26,16.25,1.46,4.83,.18,9.66,.18,14.5,.2,.12,0,.24,0,.35,.02Z"/>
      <path class="cls-4" d="M92.7,88.83c-1.46,0-3.32,.28-3.66,1.64-.22,.9,.45,1.82,1.3,2.24s1.86,.46,2.82,.49c9.93,.27,19.83,1.74,29.72,.58,2.26-.26,5.08-1.22,5.11-3.4,.02-1.34-1.19-2.47-2.52-2.87-1.34-.4-2.78-.23-4.16-.07-9.49,1.15-19.01,1.39-28.61,1.38Z"/>
      <path class="cls-4" d="M68.8,89.4c-.71,0-1.62,.25-1.78,1.47-.11,.8,.22,1.63,.64,2.01s.9,.41,1.37,.43c3.32,.17,6.6,.84,9.94,.91,1.4,.03,2.77-.09,4.15-.06,.57,.01,1.19-.06,1.59-.47,.42-.43,.45-1.1,.41-1.7-.05-.78-.2-1.58-.61-2.24-.72-1.16-1.81-1.2-3.03-1.08-1.4,.13-2.81,.26-4.22,.37-2.81,.22-5.63,.38-8.45,.37Z"/>
      <g>
        <path class="cls-2" d="M6.4,44.53c1.12,2.95,5.01,3.43,8.16,3.43,8.54,0,17.08,.02,25.62,.03,2.17,0,4.43-.01,6.41-.92,4.04-1.86,3.61-5.38-.76-5.05-4.43,.33-8.94,1.87-13.4,2.4-4.38,.52-8.79,.78-13.2,.8-1.4,0-12.41,.42-12.83-.68Z"/>
        <path class="cls-2" d="M0,70.87c1.12-2.95,5.01-3.43,8.16-3.43,8.54,0,17.08-.02,25.62-.03,2.17,0,4.43,.01,6.41,.92,4.04,1.86,3.61,5.38-.76,5.05-4.43-.33-8.94-1.87-13.4-2.4-4.38-.52-8.79-.78-13.2-.8-1.4,0-12.41-.42-12.83,.68Z"/>
        <path class="cls-2" d="M21.37,56.65c-.82,0-1.87,.17-2.05,.96-.12,.53,.25,1.07,.73,1.32s1.04,.27,1.58,.28c5.58,.16,11.14,1.02,16.69,.34,1.27-.16,2.85-.72,2.87-1.99,.01-.79-.67-1.45-1.42-1.68-.75-.23-1.56-.14-2.34-.04-5.33,.67-10.68,.82-16.07,.81Z"/>
      </g>
    </g>
  </g>
</svg>