<?xml version="1.0" encoding="UTF-8"?>
<svg id="Layer_2" data-name="Layer 2" xmlns="http://www.w3.org/2000/svg" viewBox="0 0 758.14 1252.01">
  <defs>
    <style>
      .cls-1 {
        fill: #00989d;
        opacity: .26;
      }
    </style>
  </defs>
  <g id="Layer_1-2" data-name="Layer 1">
    <path class="cls-1" d="M149.96,138.8C197.39,86.76,249.49,39.11,314.17,9.13c47.24-21.9,109.16-2.1,120.22,34.92,10.02,33.53-19.95,67.35-73.62,82.91-9.85,2.86-19.78,5.43-29.75,7.81-51.5,12.3-94.55,38.17-129.88,77.88-62.87,70.67-89.86,168.26-77.75,261.54,14.24,109.7,84.24,201.07,169.44,267.52,43.89,34.23,92.16,62.76,142.53,86.33,45.74,21.41,97.1,32.29,141.14,56.35,64.43,35.2,124.2,90.39,158.42,155.84,35.22,67.37,38.98,179.86-50.4,207.93-54.32,17.06-90.23-25.76-117.01-66.3-20.03-30.32-45.17-51.84-78.48-66.94-36.31-16.46-75.74-24.62-113.66-36.91-106.48-34.51-199.5-102.62-267.83-190.88C27.19,783.36,6.71,647.93,.35,520.57-5,371.53,51.67,246.67,149.96,138.8ZM41.8,623.81c18.41,123.77,85.92,231.23,187.79,303.43,54.88,38.89,115.7,70.23,180.28,89.42,30,8.91,63.71,17.86,95.09,19.09,31.57,1.24,59.19,1.29,79.8,30.22,15.7,22.04,22.63,54.99,48.75,62.06,14.02,3.8,33.37-3.71,42.19-16.44,22.4-32.34-13.49-110.47-68.49-155.13-42.17-34.23-64.34-23.43-153.42-66.7-45.07-21.9-76.37-42.62-96.49-55.95-65.81-43.58-113.26-81.94-152.92-127.15-22.05-25.14-36.35-46.2-40.7-52.62-30.64-45.23-96.98-143.17-83.69-250.34,3.68-29.69,13.11-57.13,7.27-59.48-6.06-2.44-24.23,23.96-34.41,49.06-5.77,14.23-8.49,26.85-9.89,35.76-3.27,14.01-7.04,33.3-9.3,56.46-5.97,60.98,3.6,107.77,8.15,138.31Z"/>
  </g>
</svg>