<svg id="SvgjsSvg1027" width="288" height="288" xmlns="http://www.w3.org/2000/svg" version="1.1" xmlns:xlink="http://www.w3.org/1999/xlink" xmlns:svgjs="http://svgjs.com/svgjs"><defs id="SvgjsDefs1028"></defs><g id="SvgjsG1029"><svg xmlns="http://www.w3.org/2000/svg" viewBox="0 0 1000 1000" width="288" height="288"><rect width="800" height="78.27" x="100" y="723.91" fill="#1a5058" rx="17.81" class="color266178 svgShape"></rect><circle cx="237.39" cy="644.48" r="66.24" fill="#1a5058" class="color266178 svgShape"></circle><circle cx="571.26" cy="251.73" r="53.91" fill="#1a5058" class="coloreb4445 svgShape"></circle><path fill="#1a5058" d="M697.4,489.85V597.29c0,12.89-10.55,23.78-23,23.79h-.22a22.93,22.93,0,0,1-22.82-22.36c0-2.66,0-55.58,0-88Z" class="coloreb4445 svgShape"></path><path fill="#1a5058" d="M885.57,672.74a31.38,31.38,0,0,1-31.39,31.17H357.84A40.92,40.92,0,0,1,329,691.81a38.58,38.58,0,0,1-11.47-27.58A39.42,39.42,0,0,1,357,625.12H564.69a43,43,0,0,0,43-44.25c-.48-17.92-12.42-33.25-28.73-39.21V504.86a63.39,63.39,0,0,1,37.23-57.67l74-33.43.27-.12,103.68-46.85a26.15,26.15,0,0,1,21.53,47.66L703.3,465.23h0l-65.48,29.59a11,11,0,0,0-6.51,10v79.26c0,12.67,0,14.63,0,15a42.89,42.89,0,0,0,42.74,42h.28l33.2,0H853.45a32.68,32.68,0,0,1,23,9.65A30.76,30.76,0,0,1,885.57,672.74Z" class="color266178 svgShape"></path><path fill="#1a5058" d="M503.45,549a10,10,0,0,0,10,10H564c12.76,0,23.4,10.05,23.74,22.41a23.06,23.06,0,0,1-23,23.7H508.85A61.16,61.16,0,0,1,448.55,544V468a96.37,96.37,0,0,1,96.26-96.26h56.33a95.33,95.33,0,0,1,69,29.15L608,429a83.41,83.41,0,0,0-49,75.89V539H513.45A10,10,0,0,0,503.45,549Z" class="coloreb4445 svgShape"></path></svg></g></svg>